<?xml version="1.0" standalone="no"?>
<!DOCTYPE svg PUBLIC "-//W3C//DTD SVG 1.1//EN" "http://www.w3.org/Graphics/SVG/1.1/DTD/svg11.dtd" >
<svg xmlns="http://www.w3.org/2000/svg">
<metadata></metadata>
<defs>
<font id="sawasdeeboldoblique" horiz-adv-x="1749" >
<font-face units-per-em="2048" ascent="1536" descent="-512" />
<missing-glyph horiz-adv-x="731" />
<glyph unicode="&#xfb01;" horiz-adv-x="959" d="M143 0l184 861h-90l32 153h90l10 54q39 182 182.5 310t315.5 128q148 0 224.5 -71.5t76.5 -165.5q0 -66 -43 -104.5t-93 -38.5q-36 0 -62 22t-26 61q0 35 24 69t59 49q-23 23 -63.5 36.5t-85.5 13.5q-120 0 -220 -88.5t-128 -220.5l-11 -54h555l-215 -1014h-158l183 861 h-397l-182 -861h-162z" />
<glyph unicode="&#xfb02;" horiz-adv-x="1000" d="M143 0l184 861h-90l32 153h90l8 41q39 180 183.5 309t314.5 129h312l-318 -1493h-158l290 1361h-152q-95 0 -189.5 -92.5t-121.5 -213.5l-9 -41h295l-86 -153h-241l-182 -861h-162z" />
<glyph unicode="&#xfb03;" horiz-adv-x="1517" d="M143 0l184 861h-90l32 153h92q44 176 183.5 297.5t305.5 121.5q158 0 235 -90q70 70 157.5 110t178.5 40q146 0 218 -69.5t72 -163.5q0 -70 -42 -110t-93 -40q-39 0 -63 25t-24 63q0 34 24 66.5t59 49.5q-52 47 -139 47q-121 0 -221.5 -87.5t-128.5 -218.5l-9 -41h560 l-217 -1014h-157l184 861h-401l-184 -861h-158l183 861h-397l-182 -861h-162zM521 1014h397l7 41q24 106 81 192q-51 54 -145 54q-114 0 -210 -80.5t-130 -206.5z" />
<glyph unicode="&#xfb04;" horiz-adv-x="1523" d="M143 0l184 861h-90l32 153h92q44 176 183.5 297.5t305.5 121.5q158 0 235 -90q70 70 157.5 110t178.5 40h314l-318 -1493h-157l289 1361h-116q-120 0 -219.5 -87t-128.5 -219l-6 -41h293l-84 -153h-243l-184 -861h-160l183 861h-397l-182 -861h-162zM521 1014h397l7 41 q24 106 81 192q-51 54 -145 54q-114 0 -210 -80.5t-130 -206.5z" />
<glyph horiz-adv-x="2048" />
<glyph horiz-adv-x="2048" />
<glyph unicode="&#xd;" horiz-adv-x="682" />
<glyph unicode=" "  horiz-adv-x="731" />
<glyph unicode="&#x09;" horiz-adv-x="731" />
<glyph unicode="&#xa0;" horiz-adv-x="731" />
<glyph unicode="!" horiz-adv-x="570" d="M188 83q0 54 45 98.5t103 44.5q41 0 68.5 -27t27.5 -67q0 -58 -48 -100.5t-100 -42.5q-42 0 -69 27t-27 67zM295 352l211 1137h192l-273 -1137h-130z" />
<glyph unicode="&#x22;" horiz-adv-x="762" d="M438 1128l64 459h196l-132 -459h-128zM679 1128l62 459h197l-135 -459h-124z" />
<glyph unicode="#" horiz-adv-x="1066" d="M56 427l34 162h243l141 315h-216l35 162h256l201 429h166l-202 -429h251l201 429h169l-205 -429h200l-34 -162h-239l-143 -315h210l-34 -162h-248l-202 -429h-163l202 429h-254l-201 -429h-166l202 429h-204zM495 589h253l143 315h-253z" />
<glyph unicode="$" horiz-adv-x="1066" d="M139 399q0 45 2 67l161 19q-3 -22 -3 -66q0 -68 14 -119.5t59.5 -96t122.5 -60.5l137 643q-50 25 -84.5 46.5t-74 56t-60 80.5t-20.5 101q0 89 46 179t137.5 161.5t207.5 91.5l28 132h157l-29 -132q35 -8 66.5 -21t54.5 -27.5t43 -34.5t33.5 -37.5t25 -40.5t18 -39 t12 -37t7.5 -31.5t4.5 -26t2.5 -16.5l-160 -52q0 1 -1.5 12t-3 19t-4.5 23t-8 27t-12 27.5t-17 28.5t-22.5 26t-29.5 23.5t-37 17.5l-98 -452q40 -18 66.5 -30.5t63.5 -33.5t62 -40t52 -47t43.5 -57.5t27 -67.5t10.5 -81q0 -84 -37 -171t-102 -162.5t-163.5 -131 t-212.5 -73.5l-28 -133h-162l27 122q-69 9 -124.5 36t-101.5 74.5t-71 124.5t-25 179zM555 1102q0 -45 28 -79.5t84 -67.5l81 382q-51 -14 -90.5 -44.5t-60.5 -65.5t-31.5 -67t-10.5 -58zM654 143q144 34 232 137t88 215q0 75 -50.5 125t-148.5 96z" />
<glyph unicode="%" horiz-adv-x="1452" d="M92 0l1405 1493h195l-1406 -1493h-194zM297 1130q0 69 32 138t85 121.5t126.5 85.5t151.5 33q116 0 188.5 -70t72.5 -178q0 -93 -53.5 -180.5t-145.5 -142.5t-194 -55q-115 0 -189 71t-74 177zM459 1164q0 -55 36.5 -90.5t97.5 -35.5q73 0 136 56t63 132q0 55 -36.5 90.5 t-97.5 35.5q-79 0 -139 -59t-60 -129zM831 233q0 68 32.5 136t85.5 121t126.5 86t150.5 33q116 0 189.5 -71t73.5 -179q0 -67 -32 -134.5t-84.5 -121t-127 -87t-153.5 -33.5q-115 0 -188 71t-73 179zM994 265q0 -56 36 -91t96 -35q73 0 136 56t63 132q0 55 -36 90.5 t-95 35.5q-84 0 -142 -59.5t-58 -128.5z" />
<glyph unicode="&#x26;" horiz-adv-x="1501" d="M218 430q0 84 28.5 171.5t82.5 171t141 156t195 118.5q-9 35 -9 81q0 161 119.5 270.5t285.5 109.5q122 0 201 -66.5t79 -190.5q0 -44 -9 -83l-9 -36h-157l7 36q6 30 6 54q0 72 -44.5 103t-104.5 31q-92 0 -152 -52.5t-60 -143.5q0 -60 28 -115l338 -654q42 70 59 151 l6 33h163l-6 -33q-31 -152 -148 -292l132 -250h-194l-70 130q-197 -147 -428 -147q-210 0 -345 127t-135 320zM378 461q0 -141 98.5 -234t255.5 -93q176 0 329 118l-345 662q-149 -60 -243.5 -188t-94.5 -265z" />
<glyph unicode="'" horiz-adv-x="523" d="M438 1128l64 459h196l-132 -459h-128z" />
<glyph unicode="(" horiz-adv-x="521" d="M141 273q0 195 36 380.5t103.5 352.5t151 312.5t192.5 291.5h147q-76 -115 -136.5 -221t-124 -246.5t-106 -277t-70 -303.5t-27.5 -336q0 -249 62 -531h-145q-83 302 -83 578z" />
<glyph unicode=")" horiz-adv-x="521" d="M25 -305q74 116 133.5 221.5t126.5 251t111.5 285t74 310t29.5 339.5q0 220 -64 508h145q88 -269 88 -544q0 -166 -33 -336.5t-81 -307.5t-119.5 -280.5t-131.5 -241.5t-133 -205h-146z" />
<glyph unicode="*" horiz-adv-x="982" d="M479 1497l70 157l201 -52l42 200h169l-43 -200l221 52l5 -157l-211 -47l88 -185l-154 -92l-86 186l-163 -186l-114 92l163 185z" />
<glyph unicode="+" horiz-adv-x="935" d="M177 665l36 161h351l74 353h161l-73 -353h351l-34 -161h-351l-77 -351h-160l75 351h-353z" />
<glyph unicode="," horiz-adv-x="570" d="M79 -242q69 46 131.5 113.5t71.5 113.5q-42 1 -68 27t-26 67q0 56 45 100.5t100 44.5q48 0 81.5 -31.5t33.5 -87.5q0 -59 -26 -117t-63 -97.5t-73.5 -71t-62.5 -46.5l-26 -15h-118z" />
<glyph unicode="-" horiz-adv-x="899" d="M218 517l32 162h688l-34 -162h-686z" />
<glyph unicode="." horiz-adv-x="570" d="M188 83q0 54 45 98.5t103 44.5q41 0 68.5 -27t27.5 -67q0 -58 -48 -100.5t-100 -42.5q-42 0 -69 27t-27 67z" />
<glyph unicode="/" horiz-adv-x="1168" d="M-77 -36l1442 1565h200l-1444 -1565h-198z" />
<glyph unicode="0" horiz-adv-x="1179" d="M211 515q0 169 57 346t151 320t226.5 234t272.5 91q121 0 209 -71t131 -189.5t43 -269.5q0 -135 -36 -277t-103 -268t-153 -226.5t-195 -159t-221 -58.5q-121 0 -209 71t-130.5 189t-42.5 268zM369 549q0 -185 74.5 -297.5t182.5 -112.5q65 0 137 42t138.5 119t120.5 175 t86.5 221t32.5 246q0 185 -74.5 297.5t-182.5 112.5q-64 0 -136.5 -42t-139 -119t-120.5 -175t-86.5 -221t-32.5 -246z" />
<glyph unicode="1" horiz-adv-x="1177" d="M513 0l262 1233l-153 -78l-49 133l421 218l-321 -1506h-160z" />
<glyph unicode="2" horiz-adv-x="1177" d="M77 0l15 74q22 104 86.5 194t151 155.5t186.5 124t199.5 111.5t183.5 106t143.5 118.5t74.5 137.5q9 33 9 79q0 111 -67.5 182.5t-172.5 71.5q-122 0 -233 -96.5t-140 -236.5l-7 -36h-160l8 36q28 130 112 241.5t204.5 177.5t247.5 66q163 0 265 -108t102 -272 q0 -87 -28.5 -163.5t-78.5 -135.5t-115 -112t-140 -98t-152.5 -87t-154 -84.5t-141.5 -85.5t-118.5 -96t-81.5 -110h857l-32 -154h-1023z" />
<glyph unicode="3" horiz-adv-x="1179" d="M199 365q0 53 9 94l10 34h158l-7 -34q-6 -35 -6 -63q0 -110 74.5 -183.5t190.5 -73.5q96 0 189.5 52t154 141.5t60.5 188.5q0 110 -75 183t-192 73h-35l33 154h34q106 0 191.5 70t85.5 174q0 77 -52.5 127t-135.5 50q-94 0 -174 -64.5t-99 -155.5l-9 -32h-156l7 32 q34 156 169.5 265t295.5 109q139 0 227 -83.5t88 -213.5q0 -103 -54.5 -195.5t-146.5 -154.5q74 -51 115.5 -130.5t41.5 -175.5q0 -103 -49 -206t-129 -182t-191.5 -128.5t-228.5 -49.5q-173 0 -283.5 107t-110.5 271z" />
<glyph unicode="4" horiz-adv-x="1177" d="M-2 267l1298 1311l-246 -1157h174l-85 -154h-120l-56 -265h-160l56 265h-861zM346 421h547l148 698z" />
<glyph unicode="5" horiz-adv-x="1177" d="M168 412l5 79h156v-45q0 -135 82 -222t211 -87q116 0 223.5 69t173.5 182.5t66 235.5q0 134 -82.5 221.5t-210.5 87.5q-101 0 -200 -57t-180 -164h-154l233 781h814l-85 -154h-616l-107 -359q159 101 327 101q188 0 305.5 -122.5t117.5 -307.5q0 -122 -54 -243.5 t-142.5 -215t-210.5 -151.5t-249 -58q-188 0 -305.5 122.5t-117.5 306.5z" />
<glyph unicode="6" horiz-adv-x="1177" d="M168 421q0 75 16 143t53 137t79 128t114 140t136 148t167.5 176t186.5 202h190l-373 -412q39 7 89 7q188 0 305.5 -122.5t117.5 -307.5q0 -163 -91 -319.5t-245 -256t-322 -99.5q-190 0 -306.5 124.5t-116.5 311.5zM331 453q0 -137 82 -226.5t209 -89.5q84 0 169 41.5 t150 109t106 159.5t41 187q0 132 -83 219t-210 87q-113 0 -220.5 -67t-175.5 -180.5t-68 -239.5z" />
<glyph unicode="7" horiz-adv-x="1179" d="M346 0l903 1339h-869l86 154h1059l-1004 -1493h-175z" />
<glyph unicode="8" horiz-adv-x="1179" d="M199 365q0 149 91.5 285.5t241.5 214.5q-84 81 -84 203q0 109 64 210t173.5 164.5t232.5 63.5q137 0 224 -82.5t87 -210.5q0 -113 -59.5 -203t-139.5 -145q75 -51 116.5 -132t41.5 -180q0 -105 -49 -208.5t-129.5 -182t-191 -127t-225.5 -48.5q-173 0 -283.5 107 t-110.5 271zM361 393q0 -108 74.5 -181t190.5 -73q96 0 189.5 52t154 141.5t60.5 188.5q0 110 -75.5 183t-193.5 73q-72 0 -144 -30.5t-128.5 -81.5t-92 -123t-35.5 -149zM609 1104q0 -73 52 -123t134 -50q101 0 188 75t87 176q0 73 -52 121.5t-134 48.5q-101 0 -188 -74 t-87 -174z" />
<glyph unicode="9" horiz-adv-x="1177" d="M258 833q0 164 90 319t243 253.5t323 98.5q190 0 306.5 -122t116.5 -308q0 -75 -16 -143.5t-54 -138t-80 -129.5t-114.5 -141.5t-136 -148t-166 -175t-183.5 -198.5h-191l371 412q-42 -6 -86 -6q-190 0 -306.5 121t-116.5 306zM419 867q0 -136 82.5 -224t210.5 -88 q83 0 167.5 40.5t149 106.5t105.5 156.5t41 184.5q0 136 -82.5 223.5t-210.5 87.5q-112 0 -219.5 -68t-175.5 -182t-68 -237z" />
<glyph unicode=":" horiz-adv-x="570" d="M188 83q0 54 45 98.5t103 44.5q41 0 68.5 -27t27.5 -67q0 -58 -48 -100.5t-100 -42.5q-42 0 -69 27t-27 67zM359 886q0 61 46 102.5t101 41.5q42 0 69 -27t27 -67q0 -61 -47.5 -103.5t-99.5 -42.5q-42 0 -69 27.5t-27 68.5z" />
<glyph unicode=";" horiz-adv-x="570" d="M79 -242q69 46 131.5 113.5t71.5 113.5q-42 1 -68 27t-26 67q0 56 45 100.5t100 44.5q48 0 81.5 -31.5t33.5 -87.5q0 -59 -26 -117t-63 -97.5t-73.5 -71t-62.5 -46.5l-26 -15h-118zM359 886q0 61 46 102.5t101 41.5q42 0 69 -27t27 -67q0 -61 -47.5 -103.5t-99.5 -42.5 q-42 0 -69 27.5t-27 68.5z" />
<glyph unicode="&#x3c;" horiz-adv-x="1179" d="M83 540l1002 543h312l-1006 -543l775 -542h-311z" />
<glyph unicode="=" horiz-adv-x="1078" d="M192 396l34 161h866l-35 -161h-865zM255 696l34 161h866l-34 -161h-866z" />
<glyph unicode="&#x3e;" horiz-adv-x="1179" d="M15 -2l1004 542l-773 543h311l773 -543l-1003 -542h-312z" />
<glyph unicode="?" horiz-adv-x="1183" d="M406 1079l6 34q22 104 101 194.5t193.5 144.5t233.5 54q149 0 239 -84t90 -220q0 -72 -25 -135.5t-66 -112t-91.5 -93t-103.5 -87.5t-99.5 -86.5t-82.5 -99.5t-49 -118l-32 -148h-156l32 148q17 82 60 156.5t95.5 127t111.5 104t108.5 90t86.5 82.5t46 83q4 17 4 53 q0 85 -55 135.5t-145 50.5q-122 0 -220.5 -75.5t-116.5 -163.5l-7 -34h-158zM472 77q0 54 45.5 95t97.5 41q42 0 69.5 -26.5t27.5 -65.5q0 -55 -46 -94.5t-98 -39.5q-41 0 -68.5 25.5t-27.5 64.5z" />
<glyph unicode="@" horiz-adv-x="2052" d="M213 295q0 149 43.5 300.5t120 284t185 249t233.5 200t271 131.5t293 48q213 0 380 -100t257.5 -272.5t90.5 -385.5q0 -108 -23 -210q-26 -124 -70 -223t-92.5 -159.5t-104 -101t-103.5 -56t-92 -15.5q-99 0 -163.5 66t-79.5 173q-113 -107 -248 -172t-265 -65 q-146 0 -230 81.5t-84 217.5q0 128 73.5 267t185.5 248.5t255 180.5t274 71q95 0 165 -37.5t109 -103.5l60 129h166l-240 -520q0 -1 -8.5 -18t-13.5 -28t-13.5 -33.5t-13.5 -41.5t-9 -44t-4 -49q0 -78 36.5 -122t81.5 -44q48 0 99.5 47t93.5 124t69 186t27 222 q0 180 -77 324.5t-214.5 226t-308.5 81.5q-138 0 -278.5 -54.5t-259.5 -153t-212 -225.5t-146 -282t-53 -312q0 -185 75.5 -331.5t211.5 -229t309 -82.5q109 0 207 30.5t209 90.5l58 -130q-136 -71 -255 -107t-253 -36q-214 0 -380 100.5t-255.5 274.5t-89.5 390zM701 318 q0 -80 47.5 -127.5t133.5 -47.5q93 0 200 54.5t193 137t143.5 188.5t57.5 201q0 79 -48 126t-134 47q-98 0 -206 -56t-192 -140t-139.5 -188t-55.5 -195z" />
<glyph unicode="A" horiz-adv-x="1380" d="M25 2l987 1506l347 -1506h-171l-94 442h-620l-279 -442h-170zM577 598h486l-134 512z" />
<glyph unicode="B" horiz-adv-x="1293" d="M143 0l318 1493h537q148 0 243.5 -86.5t95.5 -218.5q0 -100 -56.5 -192.5t-150.5 -156.5q82 -47 128.5 -126t46.5 -175q0 -99 -50 -197t-132.5 -173t-196 -121.5t-232.5 -46.5h-551zM333 154h393q103 0 199.5 47.5t157.5 130t61 174.5q0 103 -80.5 173.5t-210.5 70.5 h-392zM493 902h376q121 5 212.5 80.5t91.5 172.5q0 77 -59 130.5t-153 53.5h-374z" />
<glyph unicode="C" horiz-adv-x="1617" d="M239 591q0 170 80 337.5t210 294t307.5 205t361.5 78.5q394 0 573 -338l-146 -91q-15 25 -21 35.5t-31 45t-46.5 54t-61 49.5t-80.5 46.5t-99 29.5t-122 13q-191 0 -368 -102.5t-286 -272.5t-109 -357q0 -207 141.5 -344t363.5 -137q309 0 576 271l109 -83 q-323 -338 -718 -338q-184 0 -329 78.5t-225 216t-80 309.5z" />
<glyph unicode="D" horiz-adv-x="1346" d="M143 0l318 1493h329q185 0 330.5 -76.5t225.5 -211.5t80 -305q0 -136 -50 -270.5t-140 -246.5t-207.5 -199t-262 -135.5t-292.5 -48.5h-331zM333 154h173q143 0 282 58t244 154t170 228.5t65 272.5q0 207 -141.5 339.5t-366.5 132.5h-172z" />
<glyph unicode="E" horiz-adv-x="1158" d="M143 0l318 1493h921l-32 -154h-763l-85 -401h700l-31 -154h-703l-135 -630h761l-33 -154h-918z" />
<glyph unicode="F" horiz-adv-x="1158" d="M143 0l318 1493h921l-32 -154h-763l-85 -401h700l-31 -154h-703l-166 -784h-159z" />
<glyph unicode="G" d="M239 591q0 170 80 337.5t210 294t307.5 205t361.5 78.5q80 0 152.5 -15.5t124.5 -38t100 -57t76.5 -61.5t57 -64.5t37.5 -52.5t21 -37q3 -5 4 -7l-146 -94q-12 22 -20 35.5t-31 45t-46 53.5t-61.5 50.5t-80 46t-99.5 30t-123 12.5q-141 0 -280.5 -60t-245 -158.5 t-171.5 -234t-66 -277.5q0 -209 140.5 -346t364.5 -137q236 0 443.5 153t282.5 377h-649l33 155h813l-16 -79q-44 -206 -185.5 -381t-342 -276t-412.5 -101q-184 0 -329 78.5t-225 216t-80 309.5z" />
<glyph unicode="H" horiz-adv-x="1393" d="M143 0l318 1493h157l-116 -555h794l118 555h158l-318 -1493h-157l165 784h-794l-166 -784h-159z" />
<glyph unicode="I" horiz-adv-x="440" d="M143 0l318 1493h157l-316 -1493h-159z" />
<glyph unicode="J" horiz-adv-x="1027" d="M175 312q0 69 17 126h157q-13 -73 -13 -96q0 -88 53.5 -145.5t136.5 -57.5q98 0 185 76t111 188l233 1090h149l-230 -1090q-36 -171 -176.5 -294.5t-306.5 -123.5q-143 0 -229.5 93t-86.5 234z" />
<glyph unicode="K" horiz-adv-x="1219" d="M143 0l318 1493h157l-118 -562l751 562h235l-756 -564l470 -929h-202l-405 826l-138 -102l-153 -724h-159z" />
<glyph unicode="L" horiz-adv-x="1158" d="M143 0l318 1493h157l-285 -1339h764l-31 -154h-923z" />
<glyph unicode="M" horiz-adv-x="1758" d="M25 0l629 1506l307 -1126l797 1126l-21 -1506h-161l7 976l-710 -991l-277 991l-415 -976h-156z" />
<glyph unicode="N" horiz-adv-x="1671" d="M143 0l320 1508l990 -1145l239 1130h157l-320 -1510l-987 1145l-240 -1128h-159z" />
<glyph unicode="O" d="M239 591q0 170 80 337.5t210 294t307.5 205t361.5 78.5q278 0 455.5 -172t177.5 -434q0 -114 -36 -228t-100 -214t-154.5 -187.5t-195 -150t-227 -98t-245.5 -35.5q-184 0 -329 78.5t-225 216t-80 309.5zM401 622q0 -209 140.5 -346t364.5 -137q113 0 225.5 38t208 107.5 t170 159.5t116.5 201.5t42 225.5q0 208 -141.5 344.5t-362.5 136.5q-141 0 -280.5 -60t-245 -158.5t-171.5 -234t-66 -277.5z" />
<glyph unicode="P" horiz-adv-x="1205" d="M143 0l318 1493h555q149 0 241.5 -93.5t92.5 -235.5q0 -92 -41.5 -182.5t-109.5 -159.5t-162 -112t-193 -43h-400l-142 -667h-159zM477 824h401q117 0 212.5 95t95.5 216q0 90 -56.5 147t-146.5 57h-396z" />
<glyph unicode="Q" d="M239 591q0 170 80 337.5t210 294t307.5 205t361.5 78.5q278 0 455.5 -172t177.5 -434q0 -178 -80.5 -341.5t-208.5 -287.5l177 -271h-211l-102 158q-251 -171 -533 -171q-184 0 -329 78.5t-225 216t-80 309.5zM401 622q0 -209 140.5 -346t364.5 -137q226 0 426 141 l-177 273h206l103 -160q70 73 116 153.5t62.5 150.5t21 105.5t4.5 68.5q0 208 -141.5 344.5t-362.5 136.5q-141 0 -280.5 -60t-245 -158.5t-171.5 -234t-66 -277.5z" />
<glyph unicode="R" horiz-adv-x="1232" d="M143 0l318 1493h555q149 0 241.5 -93.5t92.5 -235.5q0 -149 -105 -288t-271 -189l241 -687h-181l-235 669h-355l-142 -669h-159zM477 824h401q117 0 212.5 95t95.5 216q0 90 -56.5 147t-146.5 57h-396z" />
<glyph unicode="S" horiz-adv-x="1183" d="M192 385l5 83l164 19l-5 -68q0 -141 74 -210.5t190 -69.5q109 0 205 52.5t151.5 136t55.5 172.5q0 57 -32 103t-83 76.5t-113 58.5t-123.5 58t-112.5 64.5t-83 88.5t-32 121q0 105 59 205t167.5 166.5t236.5 66.5q129 0 225 -76t115 -214l4 -32l-158 -51l-5 33 q-13 90 -73 137t-142 47q-61 0 -113.5 -24.5t-85.5 -61.5t-51.5 -79t-18.5 -79q0 -47 32 -85.5t83.5 -66.5t113.5 -55t123.5 -59.5t113 -71.5t83.5 -99.5t32 -136.5q0 -140 -85 -268t-225.5 -205.5t-294.5 -77.5q-81 0 -151.5 24t-126 71.5t-87.5 126t-32 180.5z" />
<glyph unicode="T" horiz-adv-x="961" d="M309 1339l31 154h920l-34 -154h-380l-284 -1339h-156l284 1339h-381z" />
<glyph unicode="U" horiz-adv-x="1393" d="M252 444q0 56 15 131l194 918h157l-195 -918q-11 -52 -11 -96q0 -148 91 -244t229 -96q160 0 304 126.5t184 309.5l194 918h158l-195 -918q-34 -159 -136 -295t-247 -215.5t-298 -79.5q-199 0 -321.5 130.5t-122.5 328.5z" />
<glyph unicode="V" horiz-adv-x="1340" d="M342 1493h168l253 -1097l703 1097h172l-959 -1508z" />
<glyph unicode="W" horiz-adv-x="2025" d="M340 1493h164l183 -1038l648 1053l196 -1053l622 1038h169l-891 -1508l-198 1045l-637 -1045z" />
<glyph unicode="X" horiz-adv-x="1060" d="M25 0l588 803l-214 690h178l162 -519l380 519h179l-508 -690l248 -803h-177l-196 632l-464 -632h-176z" />
<glyph unicode="Y" horiz-adv-x="1303" d="M340 1493h186l300 -690l591 690h185l-731 -853l-137 -640h-159l137 640z" />
<glyph unicode="Z" horiz-adv-x="1250" d="M25 0l1193 1339h-827l86 154h1067l-1192 -1339h913l-86 -154h-1154z" />
<glyph unicode="[" horiz-adv-x="480" d="M34 -349l419 1968h339l-36 -162h-179l-349 -1645h180l-34 -161h-340z" />
<glyph unicode="\" horiz-adv-x="1303" d="M316 1495h199l792 -1497h-199z" />
<glyph unicode="]" horiz-adv-x="478" d="M-77 -349l34 161h180l348 1645h-178l33 162h341l-416 -1968h-342z" />
<glyph unicode="^" horiz-adv-x="1239" d="M226 679l645 816h143l289 -816h-186l-220 615l-485 -615h-186z" />
<glyph unicode="_" horiz-adv-x="1042" d="M-34 -158l34 160h1045l-33 -160h-1046z" />
<glyph unicode="`" horiz-adv-x="425" d="M344 1558h198l45 -364h-141z" />
<glyph unicode="a" horiz-adv-x="1094" d="M158 224q0 36 6 54q11 54 37.5 98.5t59 77t81 58t91.5 41.5t103.5 28t103 17.5t104.5 8.5t94 3.5t84 0.5q3 13 3 38q0 108 -61.5 170.5t-149.5 62.5q-24 0 -47 -4t-44 -12t-38.5 -16t-36 -21t-31 -21.5t-27.5 -23t-21.5 -20.5t-18.5 -19l-12 -13l-109 80q193 220 416 220 q145 0 242.5 -93.5t97.5 -253.5q0 -48 -11 -108l-68 -335q-19 -79 -19 -152q0 -55 11 -90h-174q-10 50 -10 69q0 25 10 70q-188 -156 -374 -156q-148 0 -220 70.5t-72 170.5zM320 252q0 -47 39.5 -82.5t121.5 -35.5q99 0 208 63t180 149l28 135q-57 -1 -107.5 -3.5 t-122.5 -10.5t-128.5 -24t-108.5 -40t-81 -62.5t-29 -88.5z" />
<glyph unicode="b" horiz-adv-x="1219" d="M98 0q59 78 110 297l253 1194h157l-133 -626q79 73 181 119t189 46q174 0 282 -116.5t108 -289.5q0 -115 -50 -230.5t-132.5 -205t-196.5 -145.5t-234 -56q-88 0 -169 47t-127 120q-18 -74 -61 -154h-177zM401 423q0 -125 74.5 -205.5t189.5 -80.5q73 0 148.5 37 t135.5 97.5t98 146t38 175.5q0 126 -74.5 206.5t-188.5 80.5q-73 0 -149 -37t-136 -98t-98 -146.5t-38 -175.5z" />
<glyph unicode="c" horiz-adv-x="1113" d="M195 393q0 121 52.5 238.5t137 204.5t196 140.5t225.5 53.5q78 0 142.5 -24.5t102 -56t68 -77t41 -69t19.5 -51.5l-152 -77q-68 200 -254 200q-104 0 -201 -62.5t-157.5 -167.5t-60.5 -220q0 -125 74.5 -205.5t186.5 -80.5q187 0 340 199l122 -73q-223 -278 -492 -278 q-177 0 -283.5 115t-106.5 291z" />
<glyph unicode="d" horiz-adv-x="1219" d="M195 393q0 121 52.5 238.5t137 204.5t196 140.5t225.5 53.5q88 0 169 -46t129 -119l134 626h157l-254 -1194q-24 -114 -24 -225q0 -51 7 -72h-177q-5 33 -5 62q0 46 11 92q-79 -74 -179.5 -120.5t-188.5 -46.5q-177 0 -283.5 115t-106.5 291zM352 423q0 -125 75 -205.5 t188 -80.5q101 0 198.5 63t160 169.5t62.5 223.5q0 125 -74 206t-187 81q-101 0 -199 -62.5t-161 -169.5t-63 -225z" />
<glyph unicode="e" horiz-adv-x="1183" d="M195 393q0 161 88.5 309.5t231 238t293.5 89.5q176 0 285 -117.5t109 -292.5q0 -52 -16 -146h-830q-4 -34 -4 -53q0 -123 75 -202.5t188 -79.5q99 0 195 50.5t175 148.5l121 -73q-54 -69 -117.5 -121.5t-118.5 -81.5t-112.5 -47t-97 -23t-75.5 -5q-177 0 -283.5 115 t-106.5 291zM408 622h633q-10 115 -83.5 185.5t-180.5 70.5t-210 -71t-159 -185z" />
<glyph unicode="f" horiz-adv-x="585" d="M143 0l184 861h-85l33 153h86l11 52q36 169 176.5 290.5t306.5 121.5h36l-26 -124h-34q-94 0 -186 -86.5t-117 -201.5l-11 -52h289l-86 -153h-235l-183 -861h-159z" />
<glyph unicode="g" horiz-adv-x="1215" d="M161 -333l138 105q27 -33 48.5 -53t67 -39.5t100.5 -19.5q87 0 173.5 48.5t151.5 134.5t87 189l24 118q-77 -74 -177.5 -119.5t-188.5 -45.5q-177 0 -285 115.5t-108 288.5q0 114 50 229t132 205t196.5 147t235.5 57q88 0 168.5 -47.5t129.5 -122.5q16 82 58 157h177 q-66 -89 -108 -300l-146 -682q-30 -139 -120.5 -259t-220.5 -192t-265 -72q-60 0 -110 13t-88.5 38t-64.5 49t-55 58zM346 421q0 -126 75 -206.5t188 -80.5q75 0 151.5 37.5t136.5 98.5t97.5 146.5t37.5 174.5q0 125 -75.5 206t-189.5 81q-75 0 -151.5 -38t-135.5 -99.5 t-96.5 -146.5t-37.5 -173z" />
<glyph unicode="h" horiz-adv-x="1078" d="M143 0l318 1493h157l-139 -656q81 85 172 139t171 54q132 0 196.5 -78.5t64.5 -206.5q0 -64 -13 -125l-132 -620h-157l133 620q8 39 8 92q0 168 -136 168q-66 0 -151.5 -67t-148.5 -154.5t-76 -150.5l-108 -508h-159z" />
<glyph unicode="i" horiz-adv-x="436" d="M141 0l218 1014h156l-216 -1014h-158zM367 1213q0 54 43.5 93t95.5 39q41 0 67.5 -25t26.5 -62q0 -47 -40.5 -88.5t-98.5 -41.5q-40 0 -67 24t-27 61z" />
<glyph unicode="j" horiz-adv-x="436" d="M-111 -291l28 137h36q62 0 121.5 55t75.5 135l209 980h158l-208 -980q-29 -133 -141 -230t-245 -97h-34zM365 1215q0 46 41.5 87t99.5 41q40 0 66 -24t26 -61q0 -53 -44 -92.5t-95 -39.5q-42 0 -68 25t-26 64z" />
<glyph unicode="k" horiz-adv-x="1021" d="M143 0l318 1493h157l-172 -818l466 341h235l-545 -401l421 -615h-205l-355 517l-62 -45l-99 -472h-159z" />
<glyph unicode="l" horiz-adv-x="440" d="M143 0l318 1493h157l-316 -1493h-159z" />
<glyph unicode="m" horiz-adv-x="1591" d="M143 0h159l108 508q15 69 76.5 158t137 151.5t126.5 62.5q111 0 111 -152q0 -45 -13 -108l-130 -620h157l108 506q14 65 74 152.5t137 152t131 64.5q59 0 85.5 -42.5t26.5 -108.5q0 -46 -13 -109l-130 -615h156l133 615q15 84 15 135q0 124 -58 200.5t-181 76.5 q-75 0 -164 -59t-163 -150q-13 96 -70 152.5t-163 56.5q-77 0 -167 -60t-158 -149q21 79 21 131q0 40 -4 67h-175q6 -24 6 -67q0 -125 -25 -233z" />
<glyph unicode="n" horiz-adv-x="1078" d="M141 0l154 716q25 116 25 235q0 45 -6 65h173q6 -27 6 -69q0 -36 -19 -127q75 86 171.5 148t174.5 62q134 0 198.5 -79t64.5 -208q0 -62 -13 -123l-132 -620h-159l133 620q10 52 10 96q0 72 -31.5 118t-104.5 46q-65 0 -151.5 -67.5t-150 -155t-76.5 -149.5l-109 -508 h-158z" />
<glyph unicode="o" horiz-adv-x="1282" d="M195 406q0 114 55 227.5t144.5 200.5t213.5 141.5t253 54.5q196 0 320 -117.5t124 -297.5q0 -117 -54.5 -232t-144.5 -201.5t-213.5 -140.5t-252.5 -54q-196 0 -320.5 118.5t-124.5 300.5zM356 432q0 -128 88.5 -211.5t228.5 -83.5q118 0 228.5 60.5t180 165t69.5 222.5 q0 126 -89 209.5t-229 83.5q-116 0 -226 -60t-180.5 -164t-70.5 -222z" />
<glyph unicode="p" horiz-adv-x="1219" d="M49 -448l246 1166q27 127 27 233q0 45 -6 65h175q4 -40 4 -63q0 -43 -10 -94q81 75 181.5 123t188.5 48q175 0 282.5 -115.5t107.5 -290.5q0 -154 -84 -301.5t-227 -241.5t-302 -94q-88 0 -169.5 45.5t-129.5 119.5l-128 -600h-156zM401 423q0 -125 74.5 -205.5 t189.5 -80.5q73 0 148.5 37t135.5 97.5t98 146t38 175.5q0 126 -74.5 206.5t-188.5 80.5q-73 0 -149 -37t-136 -98t-98 -146.5t-38 -175.5z" />
<glyph unicode="q" horiz-adv-x="1219" d="M195 393q0 154 83.5 301t226.5 241.5t301 94.5q88 0 168.5 -48t129.5 -123q15 78 60 157h175q-36 -50 -65 -138t-43 -160l-242 -1137h-158l122 571q-79 -74 -179.5 -119.5t-188.5 -45.5q-177 0 -283.5 115.5t-106.5 290.5zM354 423q0 -125 74 -205.5t187 -80.5 q101 0 198.5 63t160 169.5t62.5 223.5q0 125 -74 206t-187 81q-101 0 -198.5 -63t-160 -170t-62.5 -224z" />
<glyph unicode="r" horiz-adv-x="737" d="M143 0l152 716q25 112 25 228q0 48 -6 72h177q4 -40 4 -63q0 -44 -12 -88q131 120 280 169l170 -139q-117 0 -211.5 -33t-147.5 -77t-91.5 -102.5t-51 -94t-19.5 -67.5l-113 -521h-156z" />
<glyph unicode="s" horiz-adv-x="906" d="M164 267l7 66l160 19q-2 -34 -2 -57q0 -83 43 -122t109 -39q103 0 171 66t68 136q0 40 -28.5 72t-71.5 52t-93.5 44t-93.5 48.5t-71.5 66.5t-28.5 97q0 124 100 220t240 96q40 0 78 -10.5t74.5 -32.5t62.5 -64t34 -99l5 -31l-160 -52l-4 34q-8 52 -40.5 78.5t-77.5 26.5 q-65 0 -105 -41.5t-40 -86.5q0 -31 28.5 -57t70.5 -44.5t92 -44t92 -53t70.5 -74.5t28.5 -107q0 -153 -131 -272t-303 -119q-121 0 -202.5 73t-81.5 211z" />
<glyph unicode="t" horiz-adv-x="585" d="M143 2l184 863h-88l32 149h90l47 224h156l-47 -224h289l-86 -149h-235l-183 -863h-159z" />
<glyph unicode="u" horiz-adv-x="1071" d="M218 305q0 39 10 91l131 618h158l-132 -618q-7 -31 -7 -63q0 -86 52 -141t134 -55q98 0 185 74.5t110 184.5l132 618h158l-133 -618q-36 -169 -175.5 -290t-306.5 -121q-142 0 -229 91t-87 229z" />
<glyph unicode="v" horiz-adv-x="1008" d="M239 1016h171l177 -642l445 642h172l-698 -1031z" />
<glyph unicode="w" horiz-adv-x="1649" d="M239 1016h173l167 -631l471 645l197 -645l427 631h171l-683 -1031l-195 673l-476 -673z" />
<glyph unicode="x" horiz-adv-x="995" d="M25 0l496 534l-241 482h181l177 -349l325 349h188l-446 -482l271 -534h-188l-201 403l-376 -403h-186z" />
<glyph unicode="y" horiz-adv-x="1006" d="M116 -487l318 519l-195 984h167l151 -777l477 777h168l-918 -1503h-168z" />
<glyph unicode="z" horiz-adv-x="980" d="M25 0l821 865h-528l85 151h772l-816 -866h613l-86 -150h-861z" />
<glyph unicode="{" horiz-adv-x="610" d="M220 571l24 114q90 51 125.5 94.5t57.5 145.5l64 299q19 91 53.5 161t73 110t85.5 65t85 33.5t77 8.5h35l-29 -131h-36q-49 0 -89 -41t-61.5 -93t-33.5 -113l-62 -295q-23 -108 -62.5 -177.5t-101.5 -123.5q52 -60 52 -165q0 -56 -16 -132l-62 -297q-14 -50 -14 -115 q0 -134 92 -134h36l-30 -131h-35q-40 0 -76 10t-71.5 35t-57 75.5t-21.5 122.5q0 67 15 137l62 297q13 59 13 90q0 30 -5.5 51.5t-22 40.5t-26 27.5t-38.5 30.5z" />
<glyph unicode="|" horiz-adv-x="444" d="M103 -186l397 1863h160l-395 -1863h-162z" />
<glyph unicode="}" horiz-adv-x="613" d="M-20 -349l27 131h36q50 0 91 41.5t62.5 93.5t34.5 113l62 299q44 202 164 297q-54 68 -54 169q0 54 16 130l62 299q14 84 14 113q0 134 -92 134h-36l26 129h37q41 0 78 -11t73 -36t57.5 -76.5t21.5 -122.5q0 -64 -15 -134l-64 -298q-10 -48 -10 -91q0 -38 13 -66.5 t27.5 -41.5t48.5 -40l-22 -115q-47 -26 -72 -44t-48.5 -45t-37.5 -61.5t-25 -88.5l-64 -299q-19 -90 -53.5 -159.5t-73 -110t-85 -66t-85.5 -34.5t-79 -9h-35z" />
<glyph unicode="~" horiz-adv-x="1080" d="M173 352l8 35q19 90 66 150t100 83t112 23q60 0 123 -21t107 -46.5t96 -46.5t93 -21q47 0 70 23t32 67l7 36h132l-6 -36q-29 -129 -102.5 -192.5t-166.5 -63.5q-55 0 -116.5 21t-106.5 46.5t-100 46.5t-98 21q-94 0 -109 -90l-9 -35h-132z" />
<glyph unicode="&#xa1;" horiz-adv-x="570" d="M74 -544l302 1268h130l-239 -1268h-193zM359 886q0 61 46 102.5t101 41.5q42 0 69 -27t27 -67q0 -61 -47.5 -103.5t-99.5 -42.5q-42 0 -69 27.5t-27 68.5z" />
<glyph unicode="&#xa2;" horiz-adv-x="1143" d="M208 391q0 132 63 263t179 230t257 132l58 274h162l-56 -263q55 -6 102.5 -24t81.5 -47t57.5 -54t42.5 -61.5t25 -50t16 -38.5l-153 -77q-11 29 -22.5 52t-35 56.5t-61.5 57t-87 32.5l-154 -730q43 7 84.5 25.5t68.5 36t59 48.5t41 42t30 36q4 5 6 7l118 -73 q-29 -38 -63 -74t-90.5 -83t-131.5 -79t-156 -40l-56 -264h-161l59 275q-130 33 -206.5 140t-76.5 251zM367 427q0 -94 42.5 -164t114.5 -102l147 694q-119 -43 -211.5 -162t-92.5 -266z" />
<glyph unicode="&#xa3;" horiz-adv-x="1177" d="M141 130q57 29 99 55t90 67.5t82 90t64.5 119.5t49.5 158l8 45h-274l84 153h209q3 30 7.5 90t7.5 95.5t9.5 85t15.5 90.5q21 97 87 174t154.5 117.5t181.5 40.5q42 0 79.5 -8t75 -30t64.5 -55.5t44 -89t17 -126.5q0 -31 -2 -47h-128v15q0 15 -2 31.5t-7 39t-18 42.5 t-31.5 37.5t-50 28t-72.5 10.5q-81 0 -150 -48t-87 -129q-7 -35 -13 -82t-9.5 -82.5t-9.5 -98.5t-9 -95h329l-83 -155h-261l-11 -45q-60 -288 -254 -470h675l-86 -154h-864z" />
<glyph unicode="&#xa4;" horiz-adv-x="1301" d="M158 316l218 177q-36 77 -36 172q0 110 46 205.5t107 161.5l-126 159l137 114l124 -158q141 82 284 82q154 0 252 -90l206 164l89 -112l-197 -166q34 -72 34 -160q0 -111 -45 -207t-107 -163l134 -175l-137 -115l-135 175q-141 -85 -288 -85q-149 0 -252 85l-218 -177z M506 698q0 -103 68 -171t178 -68q90 0 177 49.5t143 136t56 183.5q0 105 -69 172.5t-179 67.5q-92 0 -178.5 -50.5t-141 -136.5t-54.5 -183z" />
<glyph unicode="&#xa5;" horiz-adv-x="1293" d="M302 380l34 162h349l16 73h-347l33 160h262l-309 718h184l296 -690l588 690h183l-613 -718h265l-34 -160h-352l-15 -73h342l-35 -162h-341l-80 -380h-157l80 380h-349z" />
<glyph unicode="&#xa6;" horiz-adv-x="373" d="M-9 -544l188 877h161l-188 -877h-161zM252 681l186 877h162l-186 -877h-162z" />
<glyph unicode="&#xa7;" horiz-adv-x="937" d="M156 158l8 73h156q-2 -32 -2 -54q0 -82 43 -118.5t109 -36.5q105 0 171 67t66 139q0 37 -24.5 67.5t-63 51.5t-85.5 41.5t-94 45t-85.5 54t-63 75t-24.5 102.5q0 74 37.5 153.5t111.5 140.5q-55 61 -55 149q0 99 58.5 190.5t159 148.5t213.5 57q77 0 140 -29t104 -95.5 t41 -161.5l-7 -71h-158q2 26 2 49q0 49 -16 82t-43 47.5t-48.5 19.5t-45.5 5q-100 0 -167.5 -64.5t-67.5 -141.5q0 -37 24.5 -67t63 -50.5t85.5 -40.5t94.5 -43.5t86 -52.5t63 -74t24.5 -102q0 -22 -4 -48t-17 -69.5t-46 -91.5t-82 -89q55 -63 55 -145q0 -74 -35 -147 t-93 -129.5t-138.5 -91.5t-166.5 -35q-120 0 -202 74t-82 216zM427 705q0 -31 14.5 -55.5t45.5 -44.5t59 -33.5t75.5 -34t74.5 -33.5q61 37 85.5 85t24.5 82q0 30 -14 54.5t-45.5 45t-58.5 34t-77 34.5t-77 34q-57 -34 -82 -82t-25 -86z" />
<glyph unicode="&#xa8;" horiz-adv-x="666" d="M309 1265q0 58 45.5 102.5t100.5 44.5q43 0 69.5 -26.5t26.5 -67.5q0 -56 -45 -100.5t-100 -44.5q-44 0 -70.5 26t-26.5 66zM667 1265q0 58 45.5 102.5t99.5 44.5q44 0 70 -26.5t26 -67.5q0 -56 -44.5 -100.5t-100.5 -44.5q-43 0 -69.5 26t-26.5 66z" />
<glyph unicode="&#xa9;" horiz-adv-x="1765" d="M255 589q0 173 79.5 341t209 294t304.5 204t356 78q275 0 450 -172t175 -434q0 -171 -79 -338.5t-207.5 -293.5t-304.5 -204.5t-358 -78.5t-325 79t-221.5 216.5t-78.5 308.5zM414 622q0 -209 139 -346t361 -137q139 0 277 60.5t243 159t170.5 234t65.5 276.5 q0 210 -139 347.5t-360 137.5q-140 0 -278.5 -61t-243.5 -160.5t-170 -235t-65 -275.5zM620 640q0 105 43.5 206.5t114 177t164.5 121.5t190 46q236 0 314 -244l-150 -76q-29 75 -58 107q-52 58 -136 58q-55 0 -113 -29.5t-104.5 -77.5t-76 -116t-29.5 -140 q0 -98 56.5 -160.5t140.5 -62.5q47 0 90 16t76.5 44.5t53 49t40.5 46.5q5 6 7 9l118 -75q-191 -245 -419 -245q-146 0 -234 98.5t-88 246.5z" />
<glyph unicode="&#xaa;" horiz-adv-x="836" d="M250 799q0 59 23 115t68.5 105.5t127 80t187.5 30.5q98 0 168 -22q-4 68 -48.5 107t-115.5 39q-116 0 -203 -107l-117 39q73 88 131 131q109 82 227 82q125 0 205 -74.5t80 -200.5q0 -30 -11 -92l-45 -210q-13 -67 -13 -166v-45l-158 -34q-2 23 -2 63q0 33 2 58 q-126 -113 -259 -113q-110 0 -178.5 58.5t-68.5 155.5zM406 833q0 -48 33.5 -73.5t88.5 -25.5q89 0 169 73t100 133l6 34q-80 22 -167 22q-69 0 -118 -16t-71.5 -42.5t-31.5 -51.5t-9 -53z" />
<glyph unicode="&#xab;" horiz-adv-x="883" d="M161 508l367 394h198l-365 -394l199 -394h-199zM491 508l364 394h200l-365 -394l196 -394h-196z" />
<glyph unicode="&#xac;" horiz-adv-x="1329" d="M222 786l33 161h1223l-133 -625h-161l99 464h-1061z" />
<glyph unicode="&#xad;" horiz-adv-x="1089" d="M203 427l34 162h867l-34 -162h-867z" />
<glyph unicode="&#xae;" horiz-adv-x="1765" d="M255 589q0 173 79.5 341t209 294t304.5 204t356 78q275 0 450 -172t175 -434q0 -171 -79 -338.5t-207.5 -293.5t-304.5 -204.5t-358 -78.5t-325 79t-221.5 216.5t-78.5 308.5zM414 622q0 -209 139 -346t361 -137q139 0 277 60.5t243 159t170.5 234t65.5 276.5 q0 210 -139 347.5t-360 137.5q-140 0 -278.5 -61t-243.5 -160.5t-170 -235t-65 -275.5zM673 297l192 897h329q94 0 153 -59.5t59 -151.5q0 -87 -57.5 -171t-144.5 -122l135 -393h-182l-123 363h-126l-77 -363h-158zM940 814h175q49 0 89.5 40.5t40.5 96.5q0 39 -24 63 t-61 24h-171z" />
<glyph unicode="&#xaf;" horiz-adv-x="899" d="M356 1173l35 162h686l-34 -162h-687z" />
<glyph unicode="&#xb0;" horiz-adv-x="791" d="M412 1406q0 132 109 240.5t250 108.5q102 0 168.5 -65.5t66.5 -164.5q0 -85 -48.5 -166t-132.5 -132.5t-178 -51.5q-104 0 -169.5 65.5t-65.5 165.5zM579 1442q0 -45 28.5 -73t75.5 -28q61 0 106.5 45.5t45.5 108.5q0 42 -27.5 69t-73.5 27q-55 0 -105 -44t-50 -105z" />
<glyph unicode="&#xb1;" horiz-adv-x="944" d="M54 0l33 154h840l-34 -154h-839zM190 640l32 155h342l72 335h156l-72 -335h341l-31 -155h-343l-72 -335h-156l71 335h-340z" />
<glyph unicode="&#xb2;" horiz-adv-x="782" d="M224 886l18 81q15 73 59 137t102 110.5t125 88.5t133 77.5t121.5 70t94.5 75.5t48 84q4 17 4 49q0 66 -38 108t-94 42q-68 0 -131 -57t-81 -142l-10 -36h-161l9 36q30 146 150.5 253t259.5 107q120 0 194.5 -80t74.5 -200q0 -87 -38.5 -160.5t-97 -123t-134.5 -97.5 t-146.5 -84t-137 -82.5t-100.5 -92.5h521l-33 -164h-712z" />
<glyph unicode="&#xb3;" horiz-adv-x="782" d="M291 1151q0 41 16 109h161q-11 -55 -11 -78q0 -66 42.5 -108t111.5 -42q89 0 162 70t73 163q0 64 -43 106.5t-111 42.5h-36l34 162h36q58 0 103.5 37t45.5 98q0 41 -28 68.5t-72 27.5q-52 0 -96 -36.5t-55 -87.5l-9 -36h-160l8 36q24 118 124.5 201t218.5 83 q101 0 165.5 -63.5t64.5 -160.5q0 -70 -33 -133t-85 -110q88 -79 88 -208q0 -99 -58.5 -195.5t-160 -159t-214.5 -62.5q-124 0 -203 78.5t-79 197.5z" />
<glyph unicode="&#xb4;" horiz-adv-x="630" d="M385 1157l363 430h262l-437 -430h-188z" />
<glyph unicode="&#xb5;" horiz-adv-x="1062" d="M77 -359q0 44 10 94l272 1279h156l-130 -608q-7 -32 -7 -64q0 -88 52 -144.5t132 -56.5q96 0 182.5 76t110.5 189l130 608h156l-129 -608q-37 -172 -177 -295.5t-305 -123.5q-132 0 -216 82l-70 -331q-7 -31 -7 -65t11 -76l10 -29l-153 -72l-9 30q-19 53 -19 115z" />
<glyph unicode="&#xb6;" horiz-adv-x="1295" d="M307 853q0 88 32 178t97.5 172.5t155 146.5t213.5 102.5t265 38.5h403l-369 -1733h-157l336 1579h-104l-335 -1579h-157l141 667q-253 4 -387 125.5t-134 302.5z" />
<glyph unicode="&#xb7;" horiz-adv-x="570" d="M325 718q0 58 45.5 103.5t99.5 45.5q42 0 69 -27.5t27 -68.5q0 -57 -44.5 -101t-100.5 -44q-43 0 -69.5 26.5t-26.5 65.5z" />
<glyph unicode="&#xb8;" horiz-adv-x="624" d="M11 -387l117 137l24 -21q38 -28 85 -28q26 0 44 8t18 24q0 21 -66 34l-117 15l181 229h166l-83 -107q88 -35 88 -124q0 -96 -75.5 -167t-193.5 -72q-95 0 -161 53z" />
<glyph unicode="&#xb9;" horiz-adv-x="782" d="M571 889l170 801l-105 -63l-63 135l392 235l-235 -1108h-159z" />
<glyph unicode="&#xba;" horiz-adv-x="818" d="M231 878q0 111 63 216.5t172 173t230 67.5q133 0 218.5 -85t85.5 -214q0 -112 -64.5 -217.5t-173.5 -171.5t-228 -66q-134 0 -218.5 84.5t-84.5 212.5zM396 914q0 -75 48.5 -124t123.5 -49q100 0 183.5 79t83.5 183q0 75 -48.5 123.5t-124.5 48.5q-100 0 -183 -78.5 t-83 -182.5z" />
<glyph unicode="&#xbb;" horiz-adv-x="883" d="M47 114l367 394l-199 394h199l199 -394l-367 -394h-199zM376 114l367 394l-199 394h199l197 -394l-365 -394h-199z" />
<glyph unicode="&#xbc;" horiz-adv-x="1819" d="M314 0l1394 1493h193l-1395 -1493h-192zM389 481l164 766l-100 -61l-62 128l382 226l-227 -1059h-157zM869 154l942 961l-173 -803h152l-82 -158h-98l-34 -154h-157l34 154h-584zM1218 312h268l74 348z" />
<glyph unicode="&#xbd;" horiz-adv-x="1819" d="M224 0l1395 1493h192l-1395 -1493h-192zM389 481l164 766l-100 -61l-62 128l382 226l-227 -1059h-157zM1032 0l15 74q15 70 57.5 131.5t99 106t121.5 84t129 73.5t117.5 67t91 71.5t45.5 79.5q5 16 5 47q0 63 -38 103.5t-92 40.5q-65 0 -126.5 -55t-77.5 -136l-9 -33 h-155l7 33q29 141 144.5 243t252.5 102q117 0 188 -76t71 -193q0 -84 -37 -154.5t-93.5 -117t-129.5 -92t-140.5 -79t-131.5 -78t-97 -88.5h483l-31 -154h-669z" />
<glyph unicode="&#xbe;" horiz-adv-x="1819" d="M258 730q0 34 13 103h156q-11 -52 -11 -74q0 -63 42.5 -103.5t107.5 -40.5q87 0 158 66.5t71 153.5q0 63 -42 104t-108 41h-34l32 155h36q55 0 100 34t45 91q0 41 -27.5 67.5t-72.5 26.5q-51 0 -93.5 -34.5t-53.5 -84.5l-6 -33h-157l7 33q24 113 121.5 192t211.5 79 q98 0 161 -61t63 -153q0 -131 -113 -231q84 -74 84 -200q0 -96 -57.5 -188t-155 -151t-204.5 -59q-121 0 -197.5 75.5t-76.5 191.5zM430 0l1394 1493h193l-1395 -1493h-192zM927 156l942 961l-170 -805h153l-86 -156h-98l-34 -156h-154l31 156h-584zM1276 312h268l75 346z " />
<glyph unicode="&#xbf;" horiz-adv-x="1089" d="M72 -244q0 75 25.5 141t68 116.5t94 97t106 91.5t102 90.5t85 104.5t51.5 124l39 186h160l-38 -186q-17 -82 -55.5 -154t-86.5 -123.5t-102 -98t-104 -87t-91 -81t-66 -88t-25 -100.5q0 -88 56 -140t147 -52q126 0 227 79t121 172l6 36h161l-6 -36q-23 -108 -104.5 -203 t-198.5 -152t-238 -57q-153 0 -243.5 88t-90.5 232zM647 886q0 58 48 101t100 43q41 0 68.5 -27t27.5 -67q0 -53 -43.5 -99.5t-104.5 -46.5q-42 0 -69 27.5t-27 68.5z" />
<glyph unicode="&#xc0;" horiz-adv-x="1380" d="M25 2l987 1506l347 -1506h-171l-94 442h-620l-279 -442h-170zM577 598h486l-134 512zM675 1914h284l212 -338h-184z" />
<glyph unicode="&#xc1;" horiz-adv-x="1380" d="M25 2l987 1506l347 -1506h-171l-94 442h-620l-279 -442h-170zM577 598h486l-134 512zM835 1576l356 338h280l-455 -338h-181z" />
<glyph unicode="&#xc2;" horiz-adv-x="1380" d="M25 2l987 1506l347 -1506h-171l-94 442h-620l-279 -442h-170zM577 598h486l-134 512zM669 1576l381 338h97l235 -338h-220l-105 148l-168 -148h-220z" />
<glyph unicode="&#xc3;" horiz-adv-x="1380" d="M25 2l987 1506l347 -1506h-171l-94 442h-620l-279 -442h-170zM577 598h486l-134 512zM737 1576l8 38q55 215 210 215q51 0 99 -26.5t81.5 -52.5t50.5 -26q29 0 43 55l6 36h132l-8 -36q-47 -219 -206 -219q-46 0 -93.5 27.5t-84.5 55t-57 27.5q-30 0 -45 -60l-8 -34h-128z " />
<glyph unicode="&#xc4;" horiz-adv-x="1380" d="M25 2l987 1506l347 -1506h-171l-94 442h-620l-279 -442h-170zM577 598h486l-134 512zM750 1670q0 54 45 99.5t102 45.5q42 0 69.5 -27t27.5 -69q0 -61 -46.5 -102t-101.5 -41q-42 0 -69 27t-27 67zM1108 1670q0 54 45 99.5t103 45.5q42 0 69 -27t27 -69q0 -60 -47 -101.5 t-101 -41.5q-41 0 -68.5 27t-27.5 67z" />
<glyph unicode="&#xc5;" horiz-adv-x="1380" d="M25 2l987 1506l347 -1506h-171l-94 442h-620l-279 -442h-170zM577 598h486l-134 512zM820 1760q0 111 93 206t215 95q90 0 147 -55.5t57 -140.5q0 -73 -40.5 -143t-113 -116t-155.5 -46q-90 0 -146.5 56.5t-56.5 143.5zM983 1795q0 -31 21 -52.5t53 -21.5q42 0 75.5 34 t33.5 76q0 30 -20 50t-52 20q-47 0 -79 -35.5t-32 -70.5z" />
<glyph unicode="&#xc6;" horiz-adv-x="1662" d="M25 0l951 1493h871l-32 -154h-658l-8 -401h521l-32 -154h-494l-14 -632h457l-34 -152h-588l9 440h-500l-282 -440h-167zM575 596h405l16 662z" />
<glyph unicode="&#xc7;" horiz-adv-x="1617" d="M242 591q0 170 79.5 337.5t209 294t306.5 205t361 78.5q80 0 151.5 -15t124 -37.5t99.5 -55.5t77 -62.5t57 -65.5t39.5 -57t24.5 -45l-146 -91q-15 25 -21 35.5t-31 45t-46.5 54t-61 49.5t-80.5 46.5t-99 29.5t-122 13q-143 0 -282.5 -60.5t-244.5 -159.5t-169.5 -234.5 t-64.5 -277.5q0 -208 140.5 -344.5t362.5 -136.5q87 0 173 23t145 53t118 73t85.5 68t54.5 54l109 -83q-292 -306 -642 -336l-65 -85q88 -36 88 -124q0 -96 -75.5 -167t-193.5 -72q-95 0 -161 53l-27 19l117 137l24 -21q38 -28 85 -28q26 0 44 8t18 24q0 21 -66 34l-117 15 l166 209q-244 27 -394 193.5t-150 406.5z" />
<glyph unicode="&#xc8;" horiz-adv-x="1158" d="M143 0l318 1493h921l-32 -154h-763l-85 -401h700l-31 -154h-703l-135 -630h761l-33 -154h-918zM589 1914h282l212 -338h-183z" />
<glyph unicode="&#xc9;" horiz-adv-x="1158" d="M143 0l318 1493h921l-32 -154h-763l-85 -401h700l-31 -154h-703l-135 -630h761l-33 -154h-918zM660 1576l356 338h282l-454 -338h-184z" />
<glyph unicode="&#xca;" horiz-adv-x="1158" d="M143 0l318 1493h921l-32 -154h-763l-85 -401h700l-31 -154h-703l-135 -630h761l-33 -154h-918zM581 1576l380 338h100l235 -338h-219l-108 148l-168 -148h-220z" />
<glyph unicode="&#xcb;" horiz-adv-x="1158" d="M143 0l318 1493h921l-32 -154h-763l-85 -401h700l-31 -154h-703l-135 -630h761l-33 -154h-918zM662 1670q0 53 44 99t104 46q43 0 69.5 -27t26.5 -69q0 -58 -47.5 -100.5t-99.5 -42.5q-42 0 -69.5 27t-27.5 67zM1021 1670q0 53 43 99t104 46q42 0 69.5 -27t27.5 -69 q0 -58 -48 -100.5t-100 -42.5q-42 0 -69 27t-27 67z" />
<glyph unicode="&#xcc;" horiz-adv-x="440" d="M143 0l318 1493h157l-316 -1493h-159zM199 1914h280l213 -338h-182z" />
<glyph unicode="&#xcd;" horiz-adv-x="440" d="M143 0l318 1493h157l-316 -1493h-159zM354 1576l355 338h282l-453 -338h-184z" />
<glyph unicode="&#xce;" horiz-adv-x="440" d="M143 0l318 1493h157l-316 -1493h-159zM199 1576l378 338h102l235 -338h-220l-107 148l-168 -148h-220z" />
<glyph unicode="&#xcf;" horiz-adv-x="440" d="M143 0l318 1493h157l-316 -1493h-159zM280 1670q0 54 44.5 99.5t102.5 45.5q42 0 69.5 -27t27.5 -69q0 -61 -46.5 -102t-101.5 -41q-42 0 -69 27t-27 67zM638 1670q0 54 45 99.5t103 45.5q42 0 69 -27t27 -69q0 -60 -47 -101.5t-101 -41.5q-41 0 -68.5 27t-27.5 67z" />
<glyph unicode="&#xd0;" horiz-adv-x="1362" d="M141 669l32 155h147l141 669h331q279 0 456.5 -167.5t177.5 -425.5q0 -136 -50 -270.5t-140.5 -246.5t-208 -199t-261.5 -135.5t-292 -48.5h-331l143 669h-145zM333 152h175q143 0 282 59t243.5 156t169 229.5t64.5 272.5q0 205 -142 337.5t-366 132.5h-172l-110 -515 h431l-30 -155h-434z" />
<glyph unicode="&#xd1;" horiz-adv-x="1671" d="M143 0l320 1508l987 -1145l242 1130h160l-323 -1510l-987 1145l-240 -1128h-159zM893 1636l11 36q48 218 209 218q39 0 78 -16.5t64 -36.5t50 -36.5t40 -16.5q16 0 27 15t16 38l7 36h132l-7 -36q-24 -112 -78.5 -164t-129.5 -52q-36 0 -74 16.5t-64.5 37t-53.5 37 t-43 16.5q-30 0 -45 -58l-9 -34h-130z" />
<glyph unicode="&#xd2;" d="M239 591q0 170 80 337.5t210 294t307.5 205t361.5 78.5q278 0 455.5 -172t177.5 -434q0 -114 -36 -228t-100 -214t-154.5 -187.5t-195 -150t-227 -98t-245.5 -35.5q-184 0 -329 78.5t-225 216t-80 309.5zM401 622q0 -209 140.5 -346t364.5 -137q113 0 225.5 38t208 107.5 t170 159.5t116.5 201.5t42 225.5q0 208 -141.5 344.5t-362.5 136.5q-141 0 -280.5 -60t-245 -158.5t-171.5 -234t-66 -277.5zM808 1914h280l213 -338h-182z" />
<glyph unicode="&#xd3;" d="M239 591q0 170 80 337.5t210 294t307.5 205t361.5 78.5q278 0 455.5 -172t177.5 -434q0 -114 -36 -228t-100 -214t-154.5 -187.5t-195 -150t-227 -98t-245.5 -35.5q-184 0 -329 78.5t-225 216t-80 309.5zM401 622q0 -209 140.5 -346t364.5 -137q113 0 225.5 38t208 107.5 t170 159.5t116.5 201.5t42 225.5q0 208 -141.5 344.5t-362.5 136.5q-141 0 -280.5 -60t-245 -158.5t-171.5 -234t-66 -277.5zM1055 1576l355 338h282l-454 -338h-183z" />
<glyph unicode="&#xd4;" d="M239 591q0 170 80 337.5t210 294t307.5 205t361.5 78.5q278 0 455.5 -172t177.5 -434q0 -114 -36 -228t-100 -214t-154.5 -187.5t-195 -150t-227 -98t-245.5 -35.5q-184 0 -329 78.5t-225 216t-80 309.5zM401 622q0 -209 140.5 -346t364.5 -137q113 0 225.5 38t208 107.5 t170 159.5t116.5 201.5t42 225.5q0 208 -141.5 344.5t-362.5 136.5q-141 0 -280.5 -60t-245 -158.5t-171.5 -234t-66 -277.5zM853 1576l380 338h99l235 -338h-217l-109 148l-169 -148h-219z" />
<glyph unicode="&#xd5;" d="M239 591q0 170 80 337.5t210 294t307.5 205t361.5 78.5q278 0 455.5 -172t177.5 -434q0 -171 -79.5 -338t-209.5 -293t-306.5 -204t-360.5 -78q-185 0 -330.5 78.5t-225.5 216t-80 309.5zM403 620q0 -208 140.5 -344.5t362.5 -136.5q141 0 280.5 60.5t245.5 159.5 t172 234.5t66 277.5q0 209 -141.5 345t-364.5 136q-144 0 -283.5 -61t-244 -161t-169 -235t-64.5 -275zM933 1636l9 36q8 31 16 54.5t25.5 56.5t38.5 54.5t55.5 37t75.5 15.5q49 0 97 -26.5t82.5 -53t51.5 -26.5q28 0 42 53l7 36h132l-7 -36q-24 -112 -78.5 -164t-129.5 -52 q-35 0 -73 16.5t-64.5 37t-54 37t-43.5 16.5q-28 0 -43 -58l-11 -34h-128z" />
<glyph unicode="&#xd6;" d="M239 591q0 170 80 337.5t210 294t307.5 205t361.5 78.5q278 0 455.5 -172t177.5 -434q0 -114 -36 -228t-100 -214t-154.5 -187.5t-195 -150t-227 -98t-245.5 -35.5q-184 0 -329 78.5t-225 216t-80 309.5zM401 622q0 -209 140.5 -346t364.5 -137q113 0 225.5 38t208 107.5 t170 159.5t116.5 201.5t42 225.5q0 208 -141.5 344.5t-362.5 136.5q-141 0 -280.5 -60t-245 -158.5t-171.5 -234t-66 -277.5zM936 1670q0 53 43 99t104 46q42 0 69 -27t27 -69q0 -58 -47.5 -100.5t-99.5 -42.5q-42 0 -69 27t-27 67zM1294 1670q0 53 43 99t105 46 q41 0 68.5 -27t27.5 -69q0 -58 -48 -100.5t-100 -42.5q-41 0 -68.5 27t-27.5 67z" />
<glyph unicode="&#xd7;" horiz-adv-x="1143" d="M107 314l513 429l-345 436h229l255 -322l385 322h226l-522 -436l340 -429h-227l-252 314l-376 -314h-226z" />
<glyph unicode="&#xd8;" d="M224 -77l199 229q-87 83 -135.5 196t-48.5 243q0 170 80 337.5t210 294t307.5 205t361.5 78.5q186 0 331 -80l199 228l119 -84l-200 -229q184 -176 184 -439q0 -137 -50.5 -273.5t-142 -250.5t-210 -202.5t-263 -138.5t-292.5 -50q-188 0 -333 80l-200 -231zM401 622 q0 -202 133 -340l883 1014q-115 56 -253 56q-140 0 -279 -60t-245.5 -158t-172.5 -234t-66 -278zM654 197q116 -58 252 -58q113 0 226 38t208.5 108t169.5 160t116 201.5t42 226.5q0 203 -135 336z" />
<glyph unicode="&#xd9;" horiz-adv-x="1393" d="M252 444q0 56 15 131l194 918h157l-195 -918q-11 -52 -11 -96q0 -148 91 -244t229 -96q160 0 304 126.5t184 309.5l194 918h158l-195 -918q-34 -159 -136 -295t-247 -215.5t-298 -79.5q-199 0 -321.5 130.5t-122.5 328.5zM640 1914h282l213 -338h-184z" />
<glyph unicode="&#xda;" horiz-adv-x="1393" d="M252 444q0 56 15 131l194 918h157l-195 -918q-11 -52 -11 -96q0 -148 91 -244t229 -96q160 0 304 126.5t184 309.5l194 918h158l-195 -918q-34 -159 -136 -295t-247 -215.5t-298 -79.5q-199 0 -321.5 130.5t-122.5 328.5zM884 1576l357 338h282l-455 -338h-184z" />
<glyph unicode="&#xdb;" horiz-adv-x="1393" d="M252 444q0 56 15 131l194 918h157l-195 -918q-11 -52 -11 -96q0 -148 91 -244t229 -96q160 0 304 126.5t184 309.5l194 918h158l-195 -918q-34 -159 -136 -295t-247 -215.5t-298 -79.5q-199 0 -321.5 130.5t-122.5 328.5zM675 1576l380 338h100l235 -338h-222l-105 148 l-168 -148h-220z" />
<glyph unicode="&#xdc;" horiz-adv-x="1393" d="M252 444q0 56 15 131l194 918h157l-195 -918q-11 -52 -11 -96q0 -148 91 -244t229 -96q160 0 304 126.5t184 309.5l194 918h158l-195 -918q-34 -159 -136 -295t-247 -215.5t-298 -79.5q-199 0 -321.5 130.5t-122.5 328.5zM759 1668q0 58 45.5 102.5t99.5 44.5 q44 0 70 -26.5t26 -67.5q0 -57 -44.5 -101t-100.5 -44q-43 0 -69.5 26.5t-26.5 65.5zM1117 1668q0 58 45.5 102.5t99.5 44.5q43 0 70 -26.5t27 -67.5q0 -57 -44.5 -101t-101.5 -44q-43 0 -69.5 26.5t-26.5 65.5z" />
<glyph unicode="&#xdd;" horiz-adv-x="1303" d="M340 1493h186l300 -690l591 690h185l-731 -853l-137 -640h-159l137 640zM828 1576l356 338h282l-454 -338h-184z" />
<glyph unicode="&#xde;" horiz-adv-x="1152" d="M143 0l318 1493h157l-67 -320q65 11 156 11q236 0 370 -95.5t134 -257.5q0 -97 -44.5 -189.5t-127.5 -169t-218 -123.5t-300 -47q-85 0 -154 12l-65 -314h-159zM401 470q66 -11 152 -11q107 0 194.5 22.5t142.5 58.5t92.5 82t52.5 91t15 88q0 110 -99.5 171.5 t-275.5 61.5q-68 0 -156 -11z" />
<glyph unicode="&#xdf;" horiz-adv-x="1107" d="M143 2l244 1147q27 125 83 224.5t127 161t151 94t160 32.5q135 0 226.5 -83t91.5 -224q0 -76 -25 -142.5t-62.5 -110t-81 -82.5t-81 -65.5t-62.5 -54t-25 -51.5q0 -28 25 -60.5t60 -66t70.5 -71.5t60.5 -91t25 -111q0 -70 -34.5 -150t-93 -150t-148 -116.5t-189.5 -46.5 q-174 0 -319 145l137 75q81 -81 186 -81q67 0 125.5 32t94.5 79.5t57 97t21 88.5q0 41 -25 81t-60.5 73.5t-70.5 68.5t-60 80.5t-25 95.5q0 48 18.5 89.5t48 72t65 59t71.5 57.5t65.5 60.5t48 74t18.5 92.5q0 87 -54.5 136.5t-135.5 49.5q-102 0 -194 -88t-131 -272 l-244 -1149h-159z" />
<glyph unicode="&#xe0;" horiz-adv-x="1094" d="M158 224q0 36 6 54q11 54 37.5 98.5t59 77t81 58t91.5 41.5t103.5 28t103 17.5t104.5 8.5t94 3.5t84 0.5q3 13 3 38q0 108 -61.5 170.5t-149.5 62.5q-24 0 -47 -4t-44 -12t-38.5 -16t-36 -21t-31 -21.5t-27.5 -23t-21.5 -20.5t-18.5 -19l-12 -13l-109 80q193 220 416 220 q145 0 242.5 -93.5t97.5 -253.5q0 -48 -11 -108l-68 -335q-19 -79 -19 -152q0 -55 11 -90h-174q-10 50 -10 69q0 25 10 70q-188 -156 -374 -156q-148 0 -220 70.5t-72 170.5zM320 252q0 -47 39.5 -82.5t121.5 -35.5q99 0 208 63t180 149l28 135q-57 -1 -107.5 -3.5 t-122.5 -10.5t-128.5 -24t-108.5 -40t-81 -62.5t-29 -88.5zM391 1493h282l213 -338h-183z" />
<glyph unicode="&#xe1;" horiz-adv-x="1094" d="M158 224q0 36 6 54q11 54 37.5 98.5t59 77t81 58t91.5 41.5t103.5 28t103 17.5t104.5 8.5t94 3.5t84 0.5q3 13 3 38q0 108 -61.5 170.5t-149.5 62.5q-24 0 -47 -4t-44 -12t-38.5 -16t-36 -21t-31 -21.5t-27.5 -23t-21.5 -20.5t-18.5 -19l-12 -13l-109 80q193 220 416 220 q145 0 242.5 -93.5t97.5 -253.5q0 -48 -11 -108l-68 -335q-19 -79 -19 -152q0 -55 11 -90h-174q-10 50 -10 69q0 25 10 70q-188 -156 -374 -156q-148 0 -220 70.5t-72 170.5zM320 252q0 -47 39.5 -82.5t121.5 -35.5q99 0 208 63t180 149l28 135q-57 -1 -107.5 -3.5 t-122.5 -10.5t-128.5 -24t-108.5 -40t-81 -62.5t-29 -88.5zM544 1155l356 338h282l-454 -338h-184z" />
<glyph unicode="&#xe2;" horiz-adv-x="1094" d="M158 224q0 36 6 54q11 54 37.5 98.5t59 77t81 58t91.5 41.5t103.5 28t103 17.5t104.5 8.5t94 3.5t84 0.5q3 13 3 38q0 108 -61.5 170.5t-149.5 62.5q-24 0 -47 -4t-44 -12t-38.5 -16t-36 -21t-31 -21.5t-27.5 -23t-21.5 -20.5t-18.5 -19l-12 -13l-109 80q193 220 416 220 q145 0 242.5 -93.5t97.5 -253.5q0 -48 -11 -108l-68 -335q-19 -79 -19 -152q0 -55 11 -90h-174q-10 50 -10 69q0 25 10 70q-188 -156 -374 -156q-148 0 -220 70.5t-72 170.5zM320 252q0 -47 39.5 -82.5t121.5 -35.5q99 0 208 63t180 149l28 135q-57 -1 -107.5 -3.5 t-122.5 -10.5t-128.5 -24t-108.5 -40t-81 -62.5t-29 -88.5zM414 1155l381 338h96l235 -338h-220l-105 148l-167 -148h-220z" />
<glyph unicode="&#xe3;" horiz-adv-x="1094" d="M158 224q0 36 6 54q11 54 38 98.5t59.5 77t81 58t91.5 41.5t103 28t103 17.5t104.5 8.5t93.5 3.5t84 0.5q3 13 3 38q0 108 -61.5 170.5t-149.5 62.5q-41 0 -82.5 -14t-67.5 -28.5t-58 -42.5t-39.5 -36t-26.5 -29l-113 80q22 24 32.5 34.5t45 43t66 52t75.5 43.5t95 35.5 t104 11.5q147 0 243.5 -94t96.5 -257q0 -56 -8 -104l-71 -335q-19 -79 -19 -152q0 -55 11 -90h-174q-6 30 -6 69q0 43 6 70q-188 -156 -376 -156q-147 0 -218.5 70.5t-71.5 170.5zM318 255q0 -48 39.5 -84.5t123.5 -36.5q99 0 208 63t180 149l28 135q-84 -1 -151.5 -6 t-145.5 -18t-132 -34t-95.5 -58t-52.5 -87q-2 -7 -2 -23zM485 1157l8 37q14 65 39.5 110t56.5 66t58.5 29.5t55.5 8.5q47 0 94.5 -25.5t84.5 -51t58 -26.5q28 0 36 47l9 36h128l-9 -36q-23 -110 -75.5 -161.5t-124.5 -51.5q-36 0 -74.5 17t-65 38t-54 38t-43.5 17 q-29 0 -45 -55l-7 -37h-130z" />
<glyph unicode="&#xe4;" horiz-adv-x="1094" d="M158 224q0 36 6 54q11 54 37.5 98.5t59 77t81 58t91.5 41.5t103.5 28t103 17.5t104.5 8.5t94 3.5t84 0.5q3 13 3 38q0 108 -61.5 170.5t-149.5 62.5q-24 0 -47 -4t-44 -12t-38.5 -16t-36 -21t-31 -21.5t-27.5 -23t-21.5 -20.5t-18.5 -19l-12 -13l-109 80q193 220 416 220 q145 0 242.5 -93.5t97.5 -253.5q0 -48 -11 -108l-68 -335q-19 -79 -19 -152q0 -55 11 -90h-174q-10 50 -10 69q0 25 10 70q-188 -156 -374 -156q-148 0 -220 70.5t-72 170.5zM320 252q0 -47 39.5 -82.5t121.5 -35.5q99 0 208 63t180 149l28 135q-57 -1 -107.5 -3.5 t-122.5 -10.5t-128.5 -24t-108.5 -40t-81 -62.5t-29 -88.5zM493 1254q0 58 47.5 100.5t99.5 42.5q42 0 69.5 -27t27.5 -67q0 -54 -43.5 -100t-104.5 -46q-42 0 -69 27.5t-27 69.5zM850 1254q0 58 48 100.5t100 42.5q42 0 69 -27t27 -67q0 -54 -43 -100t-104 -46 q-42 0 -69.5 27.5t-27.5 69.5z" />
<glyph unicode="&#xe5;" horiz-adv-x="1094" d="M158 224q0 36 6 54q11 54 37.5 98.5t59 77t81 58t91.5 41.5t103.5 28t103 17.5t104.5 8.5t94 3.5t84 0.5q3 13 3 38q0 108 -61.5 170.5t-149.5 62.5q-24 0 -47 -4t-44 -12t-38.5 -16t-36 -21t-31 -21.5t-27.5 -23t-21.5 -20.5t-18.5 -19l-12 -13l-109 80q193 220 416 220 q145 0 242.5 -93.5t97.5 -253.5q0 -48 -11 -108l-68 -335q-19 -79 -19 -152q0 -55 11 -90h-174q-10 50 -10 69q0 25 10 70q-188 -156 -374 -156q-148 0 -220 70.5t-72 170.5zM320 252q0 -47 39.5 -82.5t121.5 -35.5q99 0 208 63t180 149l28 135q-57 -1 -107.5 -3.5 t-122.5 -10.5t-128.5 -24t-108.5 -40t-81 -62.5t-29 -88.5zM566 1343q0 113 92.5 207.5t216.5 94.5q90 0 146 -56.5t56 -142.5q0 -112 -92.5 -207t-217.5 -95q-89 0 -145 56.5t-56 142.5zM730 1377q0 -30 21 -51t52 -21q43 0 77 34t34 73q0 31 -21 51.5t-51 20.5 q-38 0 -75 -32t-37 -75z" />
<glyph unicode="&#xe6;" horiz-adv-x="1893" d="M158 224q0 36 6 54q14 68 53 123t87.5 90t117.5 61t129 39t137 20.5t126 9t111 1.5q2 14 2 36q0 107 -62 165.5t-151 58.5q-24 0 -47 -4t-44 -12t-38.5 -16t-36 -21t-31 -21.5t-27.5 -23t-21.5 -20.5t-18.5 -19l-12 -13l-109 80q193 220 416 220q111 0 197 -56.5 t121 -157.5q90 97 206 154.5t235 57.5q176 0 285.5 -117.5t109.5 -292.5q0 -46 -17 -146h-827q-8 -21 -8 -51q0 -125 75.5 -204.5t189.5 -79.5q98 0 194 50.5t175 148.5l119 -73q-66 -86 -143.5 -145t-150 -86t-126 -37t-102.5 -10q-127 0 -221 64t-137 173 q-95 -106 -224.5 -173.5t-245.5 -67.5q-148 0 -220 70.5t-72 170.5zM320 252q0 -47 39.5 -82.5t121.5 -35.5q98 0 208 63t180 149l28 135q-56 -1 -107.5 -4t-122.5 -10.5t-128 -24t-109 -40.5t-81 -62.5t-29 -87.5zM1102 622h635q-10 115 -83 185.5t-181 70.5 q-106 0 -210 -71t-161 -185z" />
<glyph unicode="&#xe7;" horiz-adv-x="1113" d="M192 391q0 120 53 238t138 205.5t197.5 141.5t225.5 54q78 0 142.5 -24.5t102 -56t68 -77t41 -69t19.5 -51.5l-152 -77q-68 200 -254 200q-104 0 -201 -62.5t-157.5 -167.5t-60.5 -220q0 -125 74.5 -205.5t186.5 -80.5q187 0 340 199l122 -73q-180 -235 -412 -274 l-22 -31q87 -33 87 -124q0 -108 -81.5 -173.5t-185.5 -65.5q-89 0 -164 54l-24 20l108 105l27 -20q26 -21 58 -21q39 0 68.5 23.5t29.5 46.5q0 38 -64 50l-92 15l92 123q-142 28 -226 137t-84 261z" />
<glyph unicode="&#xe8;" horiz-adv-x="1183" d="M195 393q0 161 88.5 309.5t231 238t293.5 89.5q176 0 285 -117.5t109 -292.5q0 -52 -16 -146h-830q-4 -34 -4 -53q0 -123 75 -202.5t188 -79.5q99 0 195 50.5t175 148.5l121 -73q-54 -69 -117.5 -121.5t-118.5 -81.5t-112.5 -47t-97 -23t-75.5 -5q-177 0 -283.5 115 t-106.5 291zM396 1495h283l212 -338h-184zM408 622h633q-10 115 -83.5 185.5t-180.5 70.5t-210 -71t-159 -185z" />
<glyph unicode="&#xe9;" horiz-adv-x="1183" d="M195 393q0 161 88.5 309.5t231 238t293.5 89.5q176 0 285 -117.5t109 -292.5q0 -52 -16 -146h-830q-4 -34 -4 -53q0 -123 75 -202.5t188 -79.5q99 0 195 50.5t175 148.5l121 -73q-54 -69 -117.5 -121.5t-118.5 -81.5t-112.5 -47t-97 -23t-75.5 -5q-177 0 -283.5 115 t-106.5 291zM408 622h633q-10 115 -83.5 185.5t-180.5 70.5t-210 -71t-159 -185zM647 1157l356 338h282l-454 -338h-184z" />
<glyph unicode="&#xea;" horiz-adv-x="1183" d="M195 393q0 161 88.5 309.5t231 238t293.5 89.5q176 0 285 -117.5t109 -292.5q0 -52 -16 -146h-830q-4 -34 -4 -53q0 -123 75 -202.5t188 -79.5q99 0 195 50.5t175 148.5l121 -73q-54 -69 -117.5 -121.5t-118.5 -81.5t-112.5 -47t-97 -23t-75.5 -5q-177 0 -283.5 115 t-106.5 291zM408 622h633q-10 115 -83.5 185.5t-180.5 70.5t-210 -71t-159 -185zM483 1157l378 338h98l235 -338h-218l-105 148l-168 -148h-220z" />
<glyph unicode="&#xeb;" horiz-adv-x="1183" d="M195 393q0 161 88.5 309.5t231 238t293.5 89.5q176 0 285 -117.5t109 -292.5q0 -52 -16 -146h-830q-4 -34 -4 -53q0 -123 75 -202.5t188 -79.5q99 0 195 50.5t175 148.5l121 -73q-54 -69 -117.5 -121.5t-118.5 -81.5t-112.5 -47t-97 -23t-75.5 -5q-177 0 -283.5 115 t-106.5 291zM408 622h633q-10 115 -83.5 185.5t-180.5 70.5t-210 -71t-159 -185zM564 1251q0 57 45 101.5t100 44.5q43 0 70 -26.5t27 -65.5q0 -58 -45.5 -103t-100.5 -45q-43 0 -69.5 27t-26.5 67zM922 1251q0 57 45 101.5t101 44.5q43 0 69.5 -26.5t26.5 -65.5 q0 -58 -45.5 -103t-99.5 -45q-43 0 -70 27t-27 67z" />
<glyph unicode="&#xec;" horiz-adv-x="436" d="M101 1495h282l213 -338h-184zM141 0l218 1014h156l-216 -1014h-158z" />
<glyph unicode="&#xed;" horiz-adv-x="436" d="M141 0l218 1014h156l-216 -1014h-158zM246 1157l361 338h277l-454 -338h-184z" />
<glyph unicode="&#xee;" horiz-adv-x="436" d="M109 1157l378 338h100l235 -338h-220l-105 148l-168 -148h-220zM141 0l218 1014h156l-216 -1014h-158z" />
<glyph unicode="&#xef;" horiz-adv-x="436" d="M141 0l218 1014h156l-216 -1014h-158zM190 1254q0 60 47 101.5t101 41.5q41 0 68.5 -27t27.5 -67q0 -55 -45 -100.5t-103 -45.5q-41 0 -68.5 27.5t-27.5 69.5zM549 1254q0 61 46.5 102t100.5 41q42 0 69 -27t27 -67q0 -55 -44.5 -100.5t-102.5 -45.5q-42 0 -69 27.5 t-27 69.5z" />
<glyph unicode="&#xf0;" horiz-adv-x="1168" d="M145 408q0 119 55.5 236t146 206t214.5 144.5t253 55.5q105 0 198 -38q-69 131 -168 226l-359 -185l-49 131l292 153q-107 76 -256 124l79 149q196 -64 342 -184l361 186l49 -134l-303 -158q262 -280 262 -633q0 -112 -29.5 -212.5t-80.5 -176t-118 -136t-142.5 -99 t-152.5 -58.5t-150 -20q-196 0 -320 120t-124 303zM299 438q0 -129 89.5 -215t229.5 -86q114 0 223.5 61t181 169t71.5 231q0 133 -90 214t-225 81q-117 0 -228 -62t-181.5 -168.5t-70.5 -224.5z" />
<glyph unicode="&#xf1;" horiz-adv-x="1078" d="M141 0l154 716q25 116 25 235q0 45 -6 65h173q6 -27 6 -69q0 -36 -19 -127q75 86 171.5 148t174.5 62q134 0 198.5 -79t64.5 -208q0 -62 -13 -123l-132 -620h-159l133 620q10 52 10 96q0 72 -31.5 118t-104.5 46q-65 0 -151.5 -67.5t-150 -155t-76.5 -149.5l-109 -508 h-158zM497 1157l7 37q14 65 39.5 110t57 66t58.5 29.5t55 8.5q48 0 97 -26t85.5 -51.5t54.5 -25.5q5 0 11.5 4t15 17.5t13.5 34.5l7 34h128l-9 -43q-47 -213 -199 -213q-37 0 -76 17.5t-65.5 38.5t-53 38.5t-42.5 17.5q-30 0 -45 -57l-8 -37h-131z" />
<glyph unicode="&#xf2;" horiz-adv-x="1282" d="M195 406q0 114 55 227.5t144.5 200.5t213.5 141.5t253 54.5q196 0 320 -117.5t124 -297.5q0 -117 -54.5 -232t-144.5 -201.5t-213.5 -140.5t-252.5 -54q-196 0 -320.5 118.5t-124.5 300.5zM356 432q0 -128 88.5 -211.5t228.5 -83.5q118 0 228.5 60.5t180 165t69.5 222.5 q0 126 -89 209.5t-229 83.5q-116 0 -226 -60t-180.5 -164t-70.5 -222zM528 1495h280l213 -338h-182z" />
<glyph unicode="&#xf3;" horiz-adv-x="1282" d="M195 406q0 114 55 227.5t144.5 200.5t213.5 141.5t253 54.5q196 0 320 -117.5t124 -297.5q0 -117 -54.5 -232t-144.5 -201.5t-213.5 -140.5t-252.5 -54q-196 0 -320.5 118.5t-124.5 300.5zM356 432q0 -128 88.5 -211.5t228.5 -83.5q118 0 228.5 60.5t180 165t69.5 222.5 q0 126 -89 209.5t-229 83.5q-116 0 -226 -60t-180.5 -164t-70.5 -222zM647 1157l356 338h282l-454 -338h-184z" />
<glyph unicode="&#xf4;" horiz-adv-x="1282" d="M195 406q0 114 55 227.5t144.5 200.5t213.5 141.5t253 54.5q196 0 320 -117.5t124 -297.5q0 -117 -54.5 -232t-144.5 -201.5t-213.5 -140.5t-252.5 -54q-196 0 -320.5 118.5t-124.5 300.5zM356 432q0 -128 88.5 -211.5t228.5 -83.5q118 0 228.5 60.5t180 165t69.5 222.5 q0 126 -89 209.5t-229 83.5q-116 0 -226 -60t-180.5 -164t-70.5 -222zM532 1157l380 338h96l235 -338h-218l-105 148l-168 -148h-220z" />
<glyph unicode="&#xf5;" horiz-adv-x="1282" d="M195 406q0 114 55 227.5t144.5 200.5t213.5 141.5t253 54.5q196 0 320 -117.5t124 -297.5q0 -117 -54.5 -232t-144.5 -201.5t-213.5 -140.5t-252.5 -54q-196 0 -320.5 118.5t-124.5 300.5zM356 432q0 -128 88.5 -211.5t228.5 -83.5q118 0 228.5 60.5t180 165t69.5 222.5 q0 126 -89 209.5t-229 83.5q-116 0 -226 -60t-180.5 -164t-70.5 -222zM598 1157l9 37q13 65 38.5 110t56 66t57.5 29.5t55 8.5q48 0 97.5 -26t86.5 -51.5t55 -25.5q4 0 10.5 4t15.5 18t13 34l8 34h126l-8 -43q-23 -110 -75.5 -161.5t-123.5 -51.5q-36 0 -75 17.5t-65.5 38.5 t-54 38.5t-43.5 17.5q-29 0 -44 -57l-7 -37h-132z" />
<glyph unicode="&#xf6;" horiz-adv-x="1282" d="M195 406q0 114 55 227.5t144.5 200.5t213.5 141.5t253 54.5q196 0 320 -117.5t124 -297.5q0 -117 -54.5 -232t-144.5 -201.5t-213.5 -140.5t-252.5 -54q-196 0 -320.5 118.5t-124.5 300.5zM356 432q0 -128 88.5 -211.5t228.5 -83.5q118 0 228.5 60.5t180 165t69.5 222.5 q0 126 -89 209.5t-229 83.5q-116 0 -226 -60t-180.5 -164t-70.5 -222zM613 1251q0 57 45 101.5t101 44.5q43 0 69.5 -26.5t26.5 -65.5q0 -58 -45.5 -103t-100.5 -45q-43 0 -69.5 27t-26.5 67zM972 1251q0 57 44.5 101.5t100.5 44.5q43 0 69.5 -26.5t26.5 -65.5 q0 -58 -45.5 -103t-99.5 -45q-43 0 -69.5 27t-26.5 67z" />
<glyph unicode="&#xf7;" horiz-adv-x="1078" d="M248 665l36 161h865l-34 -161h-867zM517 444q0 54 45 99.5t103 45.5q41 0 68.5 -27t27.5 -69q0 -61 -47 -102.5t-101 -41.5q-42 0 -69 27t-27 68zM636 998q0 61 47.5 103.5t100.5 42.5q42 0 69 -27t27 -70q0 -60 -47.5 -101.5t-100.5 -41.5q-42 0 -69 26.5t-27 67.5z" />
<glyph unicode="&#xf8;" horiz-adv-x="1282" d="M171 -83l143 192q-119 119 -119 294q0 115 55 229.5t145 201.5t213.5 141.5t252.5 54.5q61 0 122 -14l117 157l129 -79l-103 -139q85 -55 132 -144t47 -198q0 -117 -54.5 -231.5t-144.5 -201t-213.5 -140t-252.5 -53.5q-114 0 -204 40l-137 -185zM356 432q0 -107 63 -182 l461 625q-15 3 -47 3q-116 0 -226.5 -60.5t-180.5 -164.5t-70 -221zM538 161q58 -24 135 -24q120 0 230.5 61.5t179 164.5t68.5 218q0 76 -33 139.5t-93 101.5z" />
<glyph unicode="&#xf9;" horiz-adv-x="1071" d="M218 305q0 39 10 91l131 618h158l-132 -618q-7 -31 -7 -63q0 -86 52 -141t134 -55q98 0 185 74.5t110 184.5l132 618h158l-133 -618q-36 -169 -175.5 -290t-306.5 -121q-142 0 -229 91t-87 229zM434 1495h282l213 -338h-184z" />
<glyph unicode="&#xfa;" horiz-adv-x="1071" d="M218 305q0 39 10 91l131 618h158l-132 -618q-7 -31 -7 -63q0 -86 52 -141t134 -55q98 0 185 74.5t110 184.5l132 618h158l-133 -618q-36 -169 -175.5 -290t-306.5 -121q-142 0 -229 91t-87 229zM593 1157l356 338h282l-454 -338h-184z" />
<glyph unicode="&#xfb;" horiz-adv-x="1071" d="M218 305q0 39 10 91l131 618h158l-132 -618q-7 -31 -7 -63q0 -86 52 -141t134 -55q98 0 185 74.5t110 184.5l132 618h158l-133 -618q-36 -169 -175.5 -290t-306.5 -121q-142 0 -229 91t-87 229zM427 1157l379 338h98l235 -338h-219l-106 148l-167 -148h-220z" />
<glyph unicode="&#xfc;" horiz-adv-x="1071" d="M218 305q0 39 10 91l131 618h158l-132 -618q-7 -31 -7 -63q0 -86 52 -141t134 -55q98 0 185 74.5t110 184.5l132 618h158l-133 -618q-36 -169 -175.5 -290t-306.5 -121q-142 0 -229 91t-87 229zM508 1254q0 60 47 101.5t101 41.5q42 0 69 -27t27 -67q0 -55 -45 -100.5 t-103 -45.5q-41 0 -68.5 27.5t-27.5 69.5zM867 1254q0 61 46.5 102t100.5 41q42 0 69 -27t27 -67q0 -55 -44.5 -100.5t-102.5 -45.5q-42 0 -69 27.5t-27 69.5z" />
<glyph unicode="&#xfd;" horiz-adv-x="1006" d="M116 -487l318 519l-195 984h167l151 -777l477 777h168l-918 -1503h-168zM557 1157l357 338h282l-455 -338h-184z" />
<glyph unicode="&#xfe;" horiz-adv-x="1147" d="M11 -497l423 1988h159l-127 -596q164 135 369 135q180 0 290 -115t110 -293q0 -157 -85 -304.5t-230.5 -241t-308.5 -93.5q-195 0 -309 143l-131 -623h-160zM374 421q0 -127 75.5 -204.5t193.5 -77.5q104 0 204 63.5t162.5 169.5t62.5 221q0 126 -77.5 206.5t-195.5 80.5 q-132 0 -249 -95.5t-161 -244.5l-11 -61q-4 -40 -4 -58z" />
<glyph unicode="&#xff;" horiz-adv-x="1006" d="M116 -487l318 519l-195 984h167l151 -777l477 777h168l-918 -1503h-168zM479 1265q0 58 45.5 102.5t99.5 44.5q44 0 70 -26.5t26 -67.5q0 -56 -44.5 -100.5t-100.5 -44.5q-43 0 -69.5 26t-26.5 66zM837 1265q0 57 46 102t100 45q43 0 69.5 -26.5t26.5 -67.5 q0 -56 -45 -100.5t-101 -44.5q-43 0 -69.5 26t-26.5 66z" />
<glyph unicode="&#x152;" horiz-adv-x="1998" d="M255 589q0 173 80.5 341.5t211 294.5t307 203.5t357.5 77.5q80 0 148 -13h843l-30 -154h-764l-88 -401h711l-34 -154h-705l-135 -632h763l-30 -152h-849q-83 -15 -152 -15q-185 0 -330 79t-224.5 216.5t-79.5 308.5zM416 620q0 -207 141 -344t363 -137q30 0 78 4 l256 1207q-46 4 -75 4q-143 0 -283 -61.5t-245 -161.5t-170 -235.5t-65 -275.5z" />
<glyph unicode="&#x153;" horiz-adv-x="2134" d="M195 406q0 114 55 227.5t144.5 200.5t213.5 141.5t253 54.5q146 0 254.5 -68t157.5 -183q90 114 215.5 182.5t257.5 68.5q176 0 285 -117.5t109 -292.5q0 -28 -15 -146h-831q-4 -34 -4 -53q0 -124 75 -203t188 -79q98 0 194.5 50.5t175.5 148.5l121 -73 q-54 -69 -117.5 -121.5t-118.5 -81.5t-113 -47t-98 -23t-77 -5q-131 0 -226 67t-137 181q-97 -114 -234 -181t-283 -67q-196 0 -320.5 118.5t-124.5 300.5zM356 432q0 -128 88.5 -211.5t228.5 -83.5q118 0 228.5 60.5t180 165t69.5 222.5q0 126 -89 209.5t-229 83.5 q-116 0 -226 -60t-180.5 -164t-70.5 -222zM1343 622h635q-10 115 -83 185.5t-180 70.5q-106 0 -210 -71t-162 -185z" />
<glyph unicode="&#x178;" horiz-adv-x="1303" d="M340 1493h186l300 -690l591 690h185l-731 -853l-137 -640h-159l137 640zM714 1668q0 58 45.5 102.5t99.5 44.5q44 0 70 -26.5t26 -67.5q0 -57 -44.5 -101t-100.5 -44q-43 0 -69.5 26.5t-26.5 65.5zM1072 1668q0 57 46 102t100 45q43 0 69.5 -26.5t26.5 -67.5 q0 -57 -44.5 -101t-101.5 -44q-43 0 -69.5 26.5t-26.5 65.5z" />
<glyph unicode="&#x2c6;" horiz-adv-x="690" d="M293 1426l378 338h100l235 -338h-220l-105 148l-168 -148h-220z" />
<glyph unicode="&#x2dc;" horiz-adv-x="648" d="M309 1288l9 35q13 64 38.5 109.5t56 66.5t58 30t55.5 9q48 0 95.5 -25.5t84 -51.5t57.5 -28q5 0 11.5 4t14.5 17.5t12 34.5l9 36h130l-9 -36q-24 -117 -75 -168.5t-126 -51.5q-47 0 -95.5 27.5t-85.5 55t-56 27.5q-30 0 -45 -59l-10 -32h-129z" />
<glyph unicode="&#x2000;" horiz-adv-x="1030" />
<glyph unicode="&#x2001;" horiz-adv-x="2061" />
<glyph unicode="&#x2002;" horiz-adv-x="1030" />
<glyph unicode="&#x2003;" horiz-adv-x="2061" />
<glyph unicode="&#x2004;" horiz-adv-x="687" />
<glyph unicode="&#x2005;" horiz-adv-x="515" />
<glyph unicode="&#x2006;" horiz-adv-x="343" />
<glyph unicode="&#x2007;" horiz-adv-x="343" />
<glyph unicode="&#x2008;" horiz-adv-x="257" />
<glyph unicode="&#x2009;" horiz-adv-x="412" />
<glyph unicode="&#x200a;" horiz-adv-x="114" />
<glyph unicode="&#x2010;" horiz-adv-x="899" d="M218 517l32 162h688l-34 -162h-686z" />
<glyph unicode="&#x2011;" horiz-adv-x="899" d="M218 517l32 162h688l-34 -162h-686z" />
<glyph unicode="&#x2012;" horiz-adv-x="899" d="M218 517l32 162h688l-34 -162h-686z" />
<glyph unicode="&#x2013;" horiz-adv-x="780" d="M199 427l34 162h566l-34 -162h-566z" />
<glyph unicode="&#x2014;" horiz-adv-x="1376" d="M199 427l34 162h1164l-34 -162h-1164z" />
<glyph unicode="&#x2018;" horiz-adv-x="476" d="M363 1173q0 25 7 55t27 75t65.5 99t112.5 106l2 21h177l-92 -65q-38 -25 -77.5 -73t-63.5 -93h5q37 0 66.5 -27t29.5 -69q0 -54 -44 -98.5t-101 -44.5q-48 0 -81 29t-33 85z" />
<glyph unicode="&#x2019;" horiz-adv-x="476" d="M267 1059l96 65q40 26 80 72.5t63 91.5h-4q-39 0 -69 27t-30 71q0 51 45.5 95t102.5 44q46 0 80 -30t34 -87q0 -38 -12.5 -78t-33 -72.5t-45 -63t-48.5 -53.5t-44.5 -40t-33.5 -26l-12 -9l-22 -7h-147z" />
<glyph unicode="&#x201a;" horiz-adv-x="570" d="M43 -278l91 63q39 27 77.5 73t63.5 91q-41 2 -68.5 29t-27.5 67q0 60 47.5 101.5t100.5 41.5q48 0 80.5 -31t32.5 -88q0 -53 -27.5 -111.5t-66.5 -104.5t-75.5 -79t-59.5 -45l-23 -7h-145z" />
<glyph unicode="&#x201c;" horiz-adv-x="737" d="M363 1173q0 25 7 55t27 75t65.5 99t112.5 106l2 21h177l-92 -65q-38 -25 -77.5 -73t-63.5 -93h5q37 0 66.5 -27t29.5 -69q0 -54 -44 -98.5t-101 -44.5q-48 0 -81 29t-33 85zM624 1173q0 25 7.5 54.5t27 73.5t65.5 98t113 107l5 23h177l-94 -65q-38 -25 -78.5 -74.5 t-62.5 -93.5q38 0 69 -27.5t31 -70.5q0 -58 -47 -99.5t-98 -41.5q-47 0 -81 29.5t-34 86.5z" />
<glyph unicode="&#x201d;" horiz-adv-x="739" d="M267 1059l96 65q40 26 80 72.5t63 91.5h-4q-39 0 -69 27t-30 71q0 51 45.5 95t102.5 44q46 0 80 -30t34 -87q0 -38 -12.5 -78t-33 -72.5t-45 -63t-48.5 -53.5t-44.5 -40t-33.5 -26l-12 -9l-22 -7h-147zM530 1059l98 65q40 26 81 73t62 91h-6q-37 0 -66.5 27t-29.5 69 q0 57 48 99t101 42q46 0 79.5 -30t33.5 -87q0 -99 -85 -206t-145 -136l-22 -7h-149z" />
<glyph unicode="&#x201e;" horiz-adv-x="839" d="M43 -278l91 63q39 27 77.5 73t63.5 91q-41 2 -68.5 29t-27.5 67q0 60 47.5 101.5t100.5 41.5q48 0 80.5 -31t32.5 -88q0 -53 -27.5 -111.5t-66.5 -104.5t-75.5 -79t-59.5 -45l-23 -7h-145zM312 -278l91 63q39 27 77.5 73t63.5 91q-43 1 -69.5 28t-26.5 68 q0 60 47.5 101.5t100.5 41.5q48 0 80.5 -31t32.5 -88q0 -68 -47.5 -146.5t-98.5 -127t-84 -66.5l-22 -7h-145z" />
<glyph unicode="&#x2022;" horiz-adv-x="989" d="M226 513q0 118 67 229t178.5 180t233.5 69q138 0 226 -88.5t88 -221.5q0 -117 -67 -228t-178.5 -180.5t-233.5 -69.5q-138 0 -226 88t-88 222z" />
<glyph unicode="&#x2026;" horiz-adv-x="1765" d="M179 45q0 60 47.5 101.5t100.5 41.5q42 0 69 -26.5t27 -67.5q0 -60 -47.5 -102.5t-100.5 -42.5q-41 0 -68.5 27t-27.5 69zM779 45q0 60 47.5 101.5t100.5 41.5q42 0 69 -26.5t27 -67.5q0 -60 -47.5 -102.5t-100.5 -42.5q-41 0 -68.5 27t-27.5 69zM1374 43q0 57 45 101 t101 44q42 0 69.5 -26.5t27.5 -67.5q0 -53 -44 -99t-105 -46q-42 0 -68 26.5t-26 67.5z" />
<glyph unicode="&#x202f;" horiz-adv-x="412" />
<glyph unicode="&#x2039;" horiz-adv-x="472" d="M98 508l368 394h199l-368 -394l200 -394h-200z" />
<glyph unicode="&#x203a;" horiz-adv-x="472" d="M27 114l364 394l-199 394h199l200 -394l-367 -394h-197z" />
<glyph unicode="&#x205f;" horiz-adv-x="515" />
<glyph unicode="&#x20ac;" horiz-adv-x="1241" d="M107 502l85 154h73q4 72 37 188h-123l86 152h100q114 227 308 371t406 144q185 0 320 -123l22 -21l-125 -124l-23 22q-100 94 -230 94q-140 0 -281.5 -99.5t-235.5 -263.5h754l-84 -152h-739q-31 -103 -38 -188h790l-85 -154h-703q24 -164 123.5 -262.5t239.5 -98.5 q138 0 269 87l30 22l77 -120l-34 -21q-186 -122 -372 -122q-199 0 -337 140t-157 375h-153z" />
<glyph unicode="&#x2122;" horiz-adv-x="1696" d="M472 1647l32 143h562l-32 -143h-208l-134 -637h-148l137 637h-209zM871 1010l347 797l183 -531l412 529l2 -795h-147l6 421l-337 -437l-141 437l-175 -421h-150z" />
<glyph unicode="&#xe000;" horiz-adv-x="1014" d="M0 0v1015h1015v-1015h-1015z" />
</font>
</defs>
</svg>
